%TF.GenerationSoftware,KiCad,Pcbnew,7.0.9-7.0.9~ubuntu22.04.1*%
%TF.CreationDate,2024-01-06T16:43:22-08:00*%
%TF.ProjectId,ir-buddy,69722d62-7564-4647-992e-6b696361645f,rev?*%
%TF.SameCoordinates,Original*%
%TF.FileFunction,Copper,L1,Top*%
%TF.FilePolarity,Positive*%
%FSLAX46Y46*%
G04 Gerber Fmt 4.6, Leading zero omitted, Abs format (unit mm)*
G04 Created by KiCad (PCBNEW 7.0.9-7.0.9~ubuntu22.04.1) date 2024-01-06 16:43:22*
%MOMM*%
%LPD*%
G01*
G04 APERTURE LIST*
G04 Aperture macros list*
%AMRoundRect*
0 Rectangle with rounded corners*
0 $1 Rounding radius*
0 $2 $3 $4 $5 $6 $7 $8 $9 X,Y pos of 4 corners*
0 Add a 4 corners polygon primitive as box body*
4,1,4,$2,$3,$4,$5,$6,$7,$8,$9,$2,$3,0*
0 Add four circle primitives for the rounded corners*
1,1,$1+$1,$2,$3*
1,1,$1+$1,$4,$5*
1,1,$1+$1,$6,$7*
1,1,$1+$1,$8,$9*
0 Add four rect primitives between the rounded corners*
20,1,$1+$1,$2,$3,$4,$5,0*
20,1,$1+$1,$4,$5,$6,$7,0*
20,1,$1+$1,$6,$7,$8,$9,0*
20,1,$1+$1,$8,$9,$2,$3,0*%
G04 Aperture macros list end*
%TA.AperFunction,ComponentPad*%
%ADD10R,1.400000X1.400000*%
%TD*%
%TA.AperFunction,ComponentPad*%
%ADD11O,1.400000X1.400000*%
%TD*%
%TA.AperFunction,ComponentPad*%
%ADD12C,1.400000*%
%TD*%
%TA.AperFunction,ComponentPad*%
%ADD13R,1.700000X1.700000*%
%TD*%
%TA.AperFunction,ComponentPad*%
%ADD14O,1.700000X1.700000*%
%TD*%
%TA.AperFunction,ComponentPad*%
%ADD15C,1.600000*%
%TD*%
%TA.AperFunction,ComponentPad*%
%ADD16RoundRect,0.250200X-0.649800X-0.649800X0.649800X-0.649800X0.649800X0.649800X-0.649800X0.649800X0*%
%TD*%
%TA.AperFunction,ComponentPad*%
%ADD17C,1.800000*%
%TD*%
%TA.AperFunction,Conductor*%
%ADD18C,0.250000*%
%TD*%
G04 APERTURE END LIST*
D10*
%TO.P,Q1009,1,D*%
%TO.N,Net-(D1008-K)*%
X200914000Y-50546000D03*
D11*
%TO.P,Q1009,2,G*%
%TO.N,Net-(Q1009-G)*%
X200914000Y-53086000D03*
%TO.P,Q1009,3,S*%
%TO.N,IR_BUS*%
X200914000Y-55626000D03*
%TD*%
D10*
%TO.P,Q1008,1,D*%
%TO.N,Net-(D1007-K)*%
X200914000Y-58420000D03*
D11*
%TO.P,Q1008,2,G*%
%TO.N,Net-(Q1008-G)*%
X200914000Y-60960000D03*
%TO.P,Q1008,3,S*%
%TO.N,IR_BUS*%
X200914000Y-63500000D03*
%TD*%
D10*
%TO.P,Q1007,1,D*%
%TO.N,Net-(D1006-K)*%
X200914000Y-66040000D03*
D11*
%TO.P,Q1007,2,G*%
%TO.N,Net-(Q1007-G)*%
X200914000Y-68580000D03*
%TO.P,Q1007,3,S*%
%TO.N,IR_BUS*%
X200914000Y-71120000D03*
%TD*%
D10*
%TO.P,Q1006,1,D*%
%TO.N,Net-(D1005-K)*%
X200914000Y-73660000D03*
D11*
%TO.P,Q1006,2,G*%
%TO.N,Net-(Q1006-G)*%
X200914000Y-76200000D03*
%TO.P,Q1006,3,S*%
%TO.N,IR_BUS*%
X200914000Y-78740000D03*
%TD*%
D10*
%TO.P,Q1005,1,D*%
%TO.N,Net-(D1004-K)*%
X175006000Y-55880000D03*
D11*
%TO.P,Q1005,2,G*%
%TO.N,Net-(Q1005-G)*%
X175006000Y-53340000D03*
%TO.P,Q1005,3,S*%
%TO.N,IR_BUS*%
X175006000Y-50800000D03*
%TD*%
D10*
%TO.P,Q1004,1,D*%
%TO.N,Net-(D1003-K)*%
X175006000Y-63500000D03*
D11*
%TO.P,Q1004,2,G*%
%TO.N,Net-(Q1004-G)*%
X175006000Y-60960000D03*
%TO.P,Q1004,3,S*%
%TO.N,IR_BUS*%
X175006000Y-58420000D03*
%TD*%
%TO.P,Q1003,3,S*%
%TO.N,IR_BUS*%
X175006000Y-66040000D03*
%TO.P,Q1003,2,G*%
%TO.N,Net-(Q1003-G)*%
X175006000Y-68580000D03*
D10*
%TO.P,Q1003,1,D*%
%TO.N,Net-(D1002-K)*%
X175006000Y-71120000D03*
%TD*%
%TO.P,Q1002,1,D*%
%TO.N,Net-(D1001-K)*%
X175006000Y-78740000D03*
D11*
%TO.P,Q1002,2,G*%
%TO.N,Net-(Q1002-G)*%
X175006000Y-76200000D03*
%TO.P,Q1002,3,S*%
%TO.N,IR_BUS*%
X175006000Y-73660000D03*
%TD*%
D10*
%TO.P,Q1001,1,D*%
%TO.N,IR_BUS*%
X185420000Y-83566000D03*
D11*
%TO.P,Q1001,2,G*%
%TO.N,Net-(Q1001-G)*%
X182880000Y-83566000D03*
%TO.P,Q1001,3,S*%
%TO.N,GND*%
X180340000Y-83566000D03*
%TD*%
D12*
%TO.P,R1003,1*%
%TO.N,+RAW*%
X169672000Y-60960000D03*
D11*
%TO.P,R1003,2*%
%TO.N,Net-(D1003-A)*%
X169672000Y-68580000D03*
%TD*%
D13*
%TO.P,D1004,1,K*%
%TO.N,Net-(D1004-K)*%
X163322000Y-50800000D03*
D14*
%TO.P,D1004,2,A*%
%TO.N,Net-(D1004-A)*%
X163322000Y-53340000D03*
%TD*%
D15*
%TO.P,U1001,1,TX*%
%TO.N,unconnected-(U1001-TX-Pad1)*%
X180340000Y-50800000D03*
%TO.P,U1001,2,RX*%
%TO.N,unconnected-(U1001-RX-Pad2)*%
X180340000Y-53340000D03*
%TO.P,U1001,3,GND*%
%TO.N,GND*%
X180340000Y-55880000D03*
%TO.P,U1001,4,GND*%
X180340000Y-58420000D03*
%TO.P,U1001,5,2*%
%TO.N,unconnected-(U1001-2-Pad5)*%
X180340000Y-60960000D03*
%TO.P,U1001,6,3*%
%TO.N,unconnected-(U1001-3-Pad6)*%
X180340000Y-63500000D03*
%TO.P,U1001,7,4*%
%TO.N,Net-(U1001-4)*%
X180340000Y-66040000D03*
%TO.P,U1001,8,5*%
%TO.N,Net-(Q1005-G)*%
X180340000Y-68580000D03*
%TO.P,U1001,9,6*%
%TO.N,Net-(Q1004-G)*%
X180340000Y-71120000D03*
%TO.P,U1001,10,7*%
%TO.N,Net-(Q1003-G)*%
X180340000Y-73660000D03*
%TO.P,U1001,11,8*%
%TO.N,Net-(Q1002-G)*%
X180340000Y-76200000D03*
%TO.P,U1001,12,9*%
%TO.N,Net-(Q1001-G)*%
X180340000Y-78740000D03*
%TO.P,U1001,13,10*%
%TO.N,Net-(Q1006-G)*%
X195580000Y-78740000D03*
%TO.P,U1001,14,16*%
%TO.N,Net-(Q1007-G)*%
X195580000Y-76200000D03*
%TO.P,U1001,15,14*%
%TO.N,Net-(Q1008-G)*%
X195580000Y-73660000D03*
%TO.P,U1001,16,15*%
%TO.N,Net-(Q1009-G)*%
X195580000Y-71120000D03*
%TO.P,U1001,17,A0*%
%TO.N,unconnected-(U1001-A0-Pad17)*%
X195580000Y-68580000D03*
%TO.P,U1001,18,A1*%
%TO.N,unconnected-(U1001-A1-Pad18)*%
X195580000Y-66040000D03*
%TO.P,U1001,19,A2*%
%TO.N,unconnected-(U1001-A2-Pad19)*%
X195580000Y-63500000D03*
%TO.P,U1001,20,A3*%
%TO.N,unconnected-(U1001-A3-Pad20)*%
X195580000Y-60960000D03*
%TO.P,U1001,21,5V*%
%TO.N,unconnected-(U1001-5V-Pad21)*%
X195580000Y-58420000D03*
%TO.P,U1001,22,RST*%
%TO.N,unconnected-(U1001-RST-Pad22)*%
X195580000Y-55880000D03*
%TO.P,U1001,23,GND*%
%TO.N,GND*%
X195580000Y-53340000D03*
%TO.P,U1001,24,RAW*%
%TO.N,+RAW*%
X195580000Y-50800000D03*
%TD*%
D12*
%TO.P,R1004,1*%
%TO.N,+RAW*%
X169672000Y-50800000D03*
D11*
%TO.P,R1004,2*%
%TO.N,Net-(D1004-A)*%
X169672000Y-58420000D03*
%TD*%
D16*
%TO.P,U1002,1,OUT*%
%TO.N,Net-(U1001-4)*%
X187960000Y-85344000D03*
D17*
%TO.P,U1002,2,GND*%
%TO.N,GND*%
X190500000Y-85344000D03*
%TO.P,U1002,3,Vs*%
%TO.N,+RAW*%
X193040000Y-85344000D03*
%TD*%
D12*
%TO.P,R1008,1*%
%TO.N,+RAW*%
X206502000Y-58420000D03*
D11*
%TO.P,R1008,2*%
%TO.N,Net-(D1008-A)*%
X206502000Y-50800000D03*
%TD*%
D12*
%TO.P,R1001,1*%
%TO.N,+RAW*%
X169672000Y-81788000D03*
D11*
%TO.P,R1001,2*%
%TO.N,Net-(D1001-A)*%
X177292000Y-81788000D03*
%TD*%
D13*
%TO.P,D1008,1,K*%
%TO.N,Net-(D1008-K)*%
X212598000Y-53340000D03*
D14*
%TO.P,D1008,2,A*%
%TO.N,Net-(D1008-A)*%
X212598000Y-50800000D03*
%TD*%
D12*
%TO.P,R1005,1*%
%TO.N,+RAW*%
X206502000Y-81788000D03*
D11*
%TO.P,R1005,2*%
%TO.N,Net-(D1005-A)*%
X198882000Y-81788000D03*
%TD*%
D13*
%TO.P,D1006,1,K*%
%TO.N,Net-(D1006-K)*%
X212598000Y-73655000D03*
D14*
%TO.P,D1006,2,A*%
%TO.N,Net-(D1006-A)*%
X212598000Y-71115000D03*
%TD*%
D12*
%TO.P,R1006,1*%
%TO.N,+RAW*%
X206502000Y-78740000D03*
D11*
%TO.P,R1006,2*%
%TO.N,Net-(D1006-A)*%
X206502000Y-71120000D03*
%TD*%
D13*
%TO.P,D1002,1,K*%
%TO.N,Net-(D1002-K)*%
X163322000Y-71120000D03*
D14*
%TO.P,D1002,2,A*%
%TO.N,Net-(D1002-A)*%
X163322000Y-73660000D03*
%TD*%
D12*
%TO.P,R1002,1*%
%TO.N,+RAW*%
X169672000Y-78740000D03*
D11*
%TO.P,R1002,2*%
%TO.N,Net-(D1002-A)*%
X169672000Y-71120000D03*
%TD*%
D14*
%TO.P,D1001,2,A*%
%TO.N,Net-(D1001-A)*%
X165862000Y-83566000D03*
D13*
%TO.P,D1001,1,K*%
%TO.N,Net-(D1001-K)*%
X163322000Y-83566000D03*
%TD*%
D12*
%TO.P,R1007,1*%
%TO.N,+RAW*%
X206502000Y-68580000D03*
D11*
%TO.P,R1007,2*%
%TO.N,Net-(D1007-A)*%
X206502000Y-60960000D03*
%TD*%
D13*
%TO.P,D1005,1,K*%
%TO.N,Net-(D1005-K)*%
X210058000Y-83566000D03*
D14*
%TO.P,D1005,2,A*%
%TO.N,Net-(D1005-A)*%
X212598000Y-83566000D03*
%TD*%
D13*
%TO.P,D1003,1,K*%
%TO.N,Net-(D1003-K)*%
X163322000Y-60960000D03*
D14*
%TO.P,D1003,2,A*%
%TO.N,Net-(D1003-A)*%
X163322000Y-63500000D03*
%TD*%
D13*
%TO.P,D1007,1,K*%
%TO.N,Net-(D1007-K)*%
X212598000Y-63749000D03*
D14*
%TO.P,D1007,2,A*%
%TO.N,Net-(D1007-A)*%
X212598000Y-61209000D03*
%TD*%
D18*
%TO.N,+RAW*%
X193040000Y-85344000D02*
X191815000Y-84119000D01*
X191815000Y-84119000D02*
X186917000Y-84119000D01*
X186917000Y-84119000D02*
X186445000Y-84591000D01*
X186445000Y-84591000D02*
X182381000Y-84591000D01*
X182381000Y-84591000D02*
X181365000Y-83575000D01*
X170942000Y-80518000D02*
X169672000Y-81788000D01*
X181365000Y-83575000D02*
X181365000Y-83141431D01*
X181365000Y-83141431D02*
X178741569Y-80518000D01*
X178741569Y-80518000D02*
X170942000Y-80518000D01*
%TO.N,IR_BUS*%
X200914000Y-63500000D02*
X201939000Y-62475000D01*
X201939000Y-62475000D02*
X201939000Y-56651000D01*
X201939000Y-56651000D02*
X200914000Y-55626000D01*
X200914000Y-71120000D02*
X201939000Y-70095000D01*
X201939000Y-70095000D02*
X201939000Y-64525000D01*
X201939000Y-64525000D02*
X200914000Y-63500000D01*
X200914000Y-78740000D02*
X201939000Y-77715000D01*
X201939000Y-77715000D02*
X201939000Y-72145000D01*
X201939000Y-72145000D02*
X200914000Y-71120000D01*
X185420000Y-83566000D02*
X188223000Y-80763000D01*
X188223000Y-80763000D02*
X198891000Y-80763000D01*
X198891000Y-80763000D02*
X200914000Y-78740000D01*
X175006000Y-73660000D02*
X176031000Y-74685000D01*
X184395000Y-82541000D02*
X185420000Y-83566000D01*
X176031000Y-74685000D02*
X176031000Y-76209000D01*
X176031000Y-76209000D02*
X182363000Y-82541000D01*
X182363000Y-82541000D02*
X184395000Y-82541000D01*
X175006000Y-66040000D02*
X173981000Y-67065000D01*
X173981000Y-67065000D02*
X173981000Y-72635000D01*
X173981000Y-72635000D02*
X175006000Y-73660000D01*
X175006000Y-58420000D02*
X173981000Y-59445000D01*
X173981000Y-59445000D02*
X173981000Y-65015000D01*
X173981000Y-65015000D02*
X175006000Y-66040000D01*
X175006000Y-50800000D02*
X173981000Y-51825000D01*
X173981000Y-51825000D02*
X173981000Y-57395000D01*
X173981000Y-57395000D02*
X175006000Y-58420000D01*
%TD*%
%TA.AperFunction,Conductor*%
%TO.N,GND*%
G36*
X162231552Y-49296185D02*
G01*
X162277307Y-49348989D01*
X162287251Y-49418147D01*
X162258226Y-49481703D01*
X162235884Y-49499706D01*
X162236769Y-49500888D01*
X162114455Y-49592452D01*
X162114452Y-49592455D01*
X162028206Y-49707664D01*
X162028202Y-49707671D01*
X161977908Y-49842517D01*
X161971501Y-49902116D01*
X161971501Y-49902123D01*
X161971500Y-49902135D01*
X161971500Y-51697870D01*
X161971501Y-51697876D01*
X161977908Y-51757483D01*
X162028202Y-51892328D01*
X162028206Y-51892335D01*
X162114452Y-52007544D01*
X162114455Y-52007547D01*
X162229664Y-52093793D01*
X162229671Y-52093797D01*
X162361081Y-52142810D01*
X162417015Y-52184681D01*
X162441432Y-52250145D01*
X162426580Y-52318418D01*
X162405430Y-52346673D01*
X162283503Y-52468600D01*
X162147965Y-52662169D01*
X162147964Y-52662171D01*
X162048098Y-52876335D01*
X162048094Y-52876344D01*
X161986938Y-53104586D01*
X161986936Y-53104596D01*
X161966341Y-53339999D01*
X161966341Y-53340000D01*
X161986936Y-53575403D01*
X161986938Y-53575413D01*
X162048094Y-53803655D01*
X162048096Y-53803659D01*
X162048097Y-53803663D01*
X162136262Y-53992732D01*
X162147965Y-54017830D01*
X162147967Y-54017834D01*
X162251186Y-54165245D01*
X162283505Y-54211401D01*
X162450599Y-54378495D01*
X162538256Y-54439873D01*
X162644165Y-54514032D01*
X162644167Y-54514033D01*
X162644170Y-54514035D01*
X162858337Y-54613903D01*
X163086592Y-54675063D01*
X163263034Y-54690500D01*
X163321999Y-54695659D01*
X163322000Y-54695659D01*
X163322001Y-54695659D01*
X163380966Y-54690500D01*
X163557408Y-54675063D01*
X163785663Y-54613903D01*
X163999830Y-54514035D01*
X164193401Y-54378495D01*
X164360495Y-54211401D01*
X164496035Y-54017830D01*
X164595903Y-53803663D01*
X164657063Y-53575408D01*
X164677659Y-53340000D01*
X164657063Y-53104592D01*
X164595903Y-52876337D01*
X164496035Y-52662171D01*
X164487846Y-52650476D01*
X164360496Y-52468600D01*
X164334012Y-52442116D01*
X164238567Y-52346671D01*
X164205084Y-52285351D01*
X164210068Y-52215659D01*
X164251939Y-52159725D01*
X164282915Y-52142810D01*
X164414331Y-52093796D01*
X164529546Y-52007546D01*
X164615796Y-51892331D01*
X164666091Y-51757483D01*
X164672500Y-51697873D01*
X164672499Y-50800000D01*
X168466357Y-50800000D01*
X168486884Y-51021535D01*
X168486885Y-51021537D01*
X168547769Y-51235523D01*
X168547775Y-51235538D01*
X168646938Y-51434683D01*
X168646943Y-51434691D01*
X168781020Y-51612238D01*
X168945437Y-51762123D01*
X168945439Y-51762125D01*
X169134595Y-51879245D01*
X169134596Y-51879245D01*
X169134599Y-51879247D01*
X169342060Y-51959618D01*
X169560757Y-52000500D01*
X169560759Y-52000500D01*
X169783241Y-52000500D01*
X169783243Y-52000500D01*
X170001940Y-51959618D01*
X170209401Y-51879247D01*
X170398562Y-51762124D01*
X170562981Y-51612236D01*
X170697058Y-51434689D01*
X170796229Y-51235528D01*
X170857115Y-51021536D01*
X170877643Y-50800000D01*
X170857115Y-50578464D01*
X170796229Y-50364472D01*
X170796224Y-50364461D01*
X170697061Y-50165316D01*
X170697056Y-50165308D01*
X170562979Y-49987761D01*
X170398562Y-49837876D01*
X170398560Y-49837874D01*
X170209404Y-49720754D01*
X170209398Y-49720752D01*
X170001940Y-49640382D01*
X169783243Y-49599500D01*
X169560757Y-49599500D01*
X169342060Y-49640382D01*
X169210864Y-49691207D01*
X169134601Y-49720752D01*
X169134595Y-49720754D01*
X168945439Y-49837874D01*
X168945437Y-49837876D01*
X168781020Y-49987761D01*
X168646943Y-50165308D01*
X168646938Y-50165316D01*
X168547775Y-50364461D01*
X168547769Y-50364476D01*
X168486885Y-50578462D01*
X168486884Y-50578464D01*
X168466357Y-50799999D01*
X168466357Y-50800000D01*
X164672499Y-50800000D01*
X164672499Y-49902128D01*
X164666091Y-49842517D01*
X164664359Y-49837874D01*
X164615797Y-49707671D01*
X164615793Y-49707664D01*
X164529547Y-49592455D01*
X164529544Y-49592452D01*
X164407231Y-49500888D01*
X164409108Y-49498379D01*
X164370657Y-49459932D01*
X164355803Y-49391659D01*
X164380217Y-49326194D01*
X164436148Y-49284320D01*
X164479487Y-49276500D01*
X180059159Y-49276500D01*
X180126198Y-49296185D01*
X180171953Y-49348989D01*
X180181897Y-49418147D01*
X180152872Y-49481703D01*
X180094094Y-49519477D01*
X180091263Y-49520271D01*
X180069535Y-49526094D01*
X179893511Y-49573258D01*
X179893502Y-49573261D01*
X179687267Y-49669431D01*
X179687265Y-49669432D01*
X179500858Y-49799954D01*
X179339954Y-49960858D01*
X179209432Y-50147265D01*
X179209431Y-50147267D01*
X179113261Y-50353502D01*
X179113258Y-50353511D01*
X179054366Y-50573302D01*
X179054364Y-50573313D01*
X179034532Y-50799998D01*
X179034532Y-50800001D01*
X179054364Y-51026686D01*
X179054366Y-51026697D01*
X179113258Y-51246488D01*
X179113261Y-51246497D01*
X179209431Y-51452732D01*
X179209432Y-51452734D01*
X179339954Y-51639141D01*
X179500858Y-51800045D01*
X179514656Y-51809706D01*
X179687266Y-51930568D01*
X179745275Y-51957618D01*
X179797714Y-52003791D01*
X179816866Y-52070984D01*
X179796650Y-52137865D01*
X179745275Y-52182381D01*
X179738316Y-52185627D01*
X179687267Y-52209431D01*
X179687265Y-52209432D01*
X179500858Y-52339954D01*
X179339954Y-52500858D01*
X179209432Y-52687265D01*
X179209431Y-52687267D01*
X179113261Y-52893502D01*
X179113258Y-52893511D01*
X179054366Y-53113302D01*
X179054364Y-53113313D01*
X179034532Y-53339998D01*
X179034532Y-53340001D01*
X179054364Y-53566686D01*
X179054366Y-53566697D01*
X179113258Y-53786488D01*
X179113261Y-53786497D01*
X179209431Y-53992732D01*
X179209432Y-53992734D01*
X179339954Y-54179141D01*
X179500858Y-54340045D01*
X179500861Y-54340047D01*
X179687266Y-54470568D01*
X179745865Y-54497893D01*
X179798305Y-54544065D01*
X179817457Y-54611258D01*
X179797242Y-54678139D01*
X179745867Y-54722657D01*
X179687511Y-54749869D01*
X179614527Y-54800972D01*
X179614526Y-54800973D01*
X180168432Y-55354878D01*
X180051542Y-55405651D01*
X179934261Y-55501066D01*
X179847072Y-55624585D01*
X179816645Y-55710198D01*
X179260973Y-55154526D01*
X179260972Y-55154527D01*
X179209868Y-55227513D01*
X179113734Y-55433673D01*
X179113730Y-55433682D01*
X179054860Y-55653389D01*
X179054858Y-55653400D01*
X179035034Y-55879997D01*
X179035034Y-55880002D01*
X179054858Y-56106599D01*
X179054860Y-56106610D01*
X179113730Y-56326317D01*
X179113734Y-56326326D01*
X179209865Y-56532481D01*
X179209866Y-56532483D01*
X179260973Y-56605471D01*
X179260974Y-56605472D01*
X179814070Y-56052375D01*
X179816884Y-56065915D01*
X179886442Y-56200156D01*
X179989638Y-56310652D01*
X180118819Y-56389209D01*
X180170002Y-56403549D01*
X179614526Y-56959025D01*
X179614526Y-56959026D01*
X179687512Y-57010131D01*
X179687516Y-57010133D01*
X179746457Y-57037618D01*
X179798896Y-57083790D01*
X179818048Y-57150984D01*
X179797832Y-57217865D01*
X179746457Y-57262382D01*
X179687513Y-57289868D01*
X179614527Y-57340972D01*
X179614526Y-57340973D01*
X180168432Y-57894878D01*
X180051542Y-57945651D01*
X179934261Y-58041066D01*
X179847072Y-58164585D01*
X179816645Y-58250198D01*
X179260973Y-57694526D01*
X179260972Y-57694527D01*
X179209868Y-57767513D01*
X179113734Y-57973673D01*
X179113730Y-57973682D01*
X179054860Y-58193389D01*
X179054858Y-58193400D01*
X179035034Y-58419997D01*
X179035034Y-58420002D01*
X179054858Y-58646599D01*
X179054860Y-58646610D01*
X179113730Y-58866317D01*
X179113734Y-58866326D01*
X179209865Y-59072481D01*
X179209866Y-59072483D01*
X179260973Y-59145471D01*
X179260974Y-59145472D01*
X179814070Y-58592375D01*
X179816884Y-58605915D01*
X179886442Y-58740156D01*
X179989638Y-58850652D01*
X180118819Y-58929209D01*
X180170002Y-58943549D01*
X179614526Y-59499025D01*
X179614526Y-59499026D01*
X179687512Y-59550131D01*
X179687520Y-59550135D01*
X179745865Y-59577342D01*
X179798305Y-59623514D01*
X179817457Y-59690707D01*
X179797242Y-59757589D01*
X179745867Y-59802105D01*
X179687268Y-59829431D01*
X179687264Y-59829433D01*
X179500858Y-59959954D01*
X179339954Y-60120858D01*
X179209432Y-60307265D01*
X179209431Y-60307267D01*
X179113261Y-60513502D01*
X179113258Y-60513511D01*
X179054366Y-60733302D01*
X179054364Y-60733313D01*
X179034532Y-60959998D01*
X179034532Y-60960001D01*
X179054364Y-61186686D01*
X179054366Y-61186697D01*
X179113258Y-61406488D01*
X179113261Y-61406497D01*
X179209431Y-61612732D01*
X179209432Y-61612734D01*
X179339954Y-61799141D01*
X179500858Y-61960045D01*
X179500861Y-61960047D01*
X179687266Y-62090568D01*
X179738316Y-62114373D01*
X179745275Y-62117618D01*
X179797714Y-62163791D01*
X179816866Y-62230984D01*
X179796650Y-62297865D01*
X179745275Y-62342381D01*
X179738316Y-62345627D01*
X179687267Y-62369431D01*
X179687265Y-62369432D01*
X179500858Y-62499954D01*
X179339954Y-62660858D01*
X179209432Y-62847265D01*
X179209431Y-62847267D01*
X179113261Y-63053502D01*
X179113258Y-63053511D01*
X179054366Y-63273302D01*
X179054364Y-63273313D01*
X179034532Y-63499998D01*
X179034532Y-63500001D01*
X179054364Y-63726686D01*
X179054366Y-63726697D01*
X179113258Y-63946488D01*
X179113261Y-63946497D01*
X179209431Y-64152732D01*
X179209432Y-64152734D01*
X179339954Y-64339141D01*
X179500858Y-64500045D01*
X179547693Y-64532839D01*
X179687266Y-64630568D01*
X179745275Y-64657618D01*
X179797714Y-64703791D01*
X179816866Y-64770984D01*
X179796650Y-64837865D01*
X179745275Y-64882382D01*
X179687267Y-64909431D01*
X179687265Y-64909432D01*
X179500858Y-65039954D01*
X179339954Y-65200858D01*
X179209432Y-65387265D01*
X179209431Y-65387267D01*
X179113261Y-65593502D01*
X179113258Y-65593511D01*
X179054366Y-65813302D01*
X179054364Y-65813313D01*
X179034532Y-66039998D01*
X179034532Y-66040001D01*
X179054364Y-66266686D01*
X179054366Y-66266697D01*
X179113258Y-66486488D01*
X179113261Y-66486497D01*
X179209431Y-66692732D01*
X179209432Y-66692734D01*
X179339954Y-66879141D01*
X179500858Y-67040045D01*
X179547693Y-67072839D01*
X179687266Y-67170568D01*
X179738316Y-67194373D01*
X179745275Y-67197618D01*
X179797714Y-67243791D01*
X179816866Y-67310984D01*
X179796650Y-67377865D01*
X179745275Y-67422382D01*
X179687267Y-67449431D01*
X179687265Y-67449432D01*
X179500858Y-67579954D01*
X179339954Y-67740858D01*
X179209432Y-67927265D01*
X179209431Y-67927267D01*
X179113261Y-68133502D01*
X179113258Y-68133511D01*
X179054366Y-68353302D01*
X179054364Y-68353313D01*
X179034532Y-68579998D01*
X179034532Y-68580001D01*
X179054364Y-68806686D01*
X179054366Y-68806697D01*
X179113258Y-69026488D01*
X179113261Y-69026497D01*
X179209431Y-69232732D01*
X179209432Y-69232734D01*
X179339954Y-69419141D01*
X179500858Y-69580045D01*
X179500861Y-69580047D01*
X179687266Y-69710568D01*
X179738316Y-69734373D01*
X179745275Y-69737618D01*
X179797714Y-69783791D01*
X179816866Y-69850984D01*
X179796650Y-69917865D01*
X179745275Y-69962382D01*
X179687267Y-69989431D01*
X179687265Y-69989432D01*
X179500858Y-70119954D01*
X179339954Y-70280858D01*
X179209432Y-70467265D01*
X179209431Y-70467267D01*
X179113261Y-70673502D01*
X179113258Y-70673511D01*
X179054366Y-70893302D01*
X179054364Y-70893313D01*
X179034532Y-71119998D01*
X179034532Y-71120001D01*
X179054364Y-71346686D01*
X179054366Y-71346697D01*
X179113258Y-71566488D01*
X179113261Y-71566497D01*
X179209431Y-71772732D01*
X179209432Y-71772734D01*
X179339954Y-71959141D01*
X179500858Y-72120045D01*
X179524473Y-72136580D01*
X179687266Y-72250568D01*
X179729620Y-72270318D01*
X179745275Y-72277618D01*
X179797714Y-72323791D01*
X179816866Y-72390984D01*
X179796650Y-72457865D01*
X179745275Y-72502381D01*
X179728272Y-72510310D01*
X179687267Y-72529431D01*
X179687265Y-72529432D01*
X179500858Y-72659954D01*
X179339954Y-72820858D01*
X179209432Y-73007265D01*
X179209431Y-73007267D01*
X179113261Y-73213502D01*
X179113258Y-73213511D01*
X179054366Y-73433302D01*
X179054364Y-73433313D01*
X179034532Y-73659998D01*
X179034532Y-73660001D01*
X179054364Y-73886686D01*
X179054366Y-73886697D01*
X179113258Y-74106488D01*
X179113261Y-74106497D01*
X179209431Y-74312732D01*
X179209432Y-74312734D01*
X179339954Y-74499141D01*
X179500858Y-74660045D01*
X179547693Y-74692839D01*
X179687266Y-74790568D01*
X179738316Y-74814373D01*
X179745275Y-74817618D01*
X179797714Y-74863791D01*
X179816866Y-74930984D01*
X179796650Y-74997865D01*
X179745275Y-75042382D01*
X179687267Y-75069431D01*
X179687265Y-75069432D01*
X179500858Y-75199954D01*
X179339954Y-75360858D01*
X179209432Y-75547265D01*
X179209431Y-75547267D01*
X179113261Y-75753502D01*
X179113258Y-75753511D01*
X179054366Y-75973302D01*
X179054364Y-75973313D01*
X179034532Y-76199998D01*
X179034532Y-76200001D01*
X179054364Y-76426686D01*
X179054366Y-76426697D01*
X179113258Y-76646488D01*
X179113261Y-76646497D01*
X179209431Y-76852732D01*
X179209432Y-76852734D01*
X179339954Y-77039141D01*
X179500858Y-77200045D01*
X179500861Y-77200047D01*
X179687266Y-77330568D01*
X179738316Y-77354373D01*
X179745275Y-77357618D01*
X179797714Y-77403791D01*
X179816866Y-77470984D01*
X179796650Y-77537865D01*
X179745275Y-77582382D01*
X179687267Y-77609431D01*
X179687265Y-77609432D01*
X179500858Y-77739954D01*
X179339954Y-77900858D01*
X179209432Y-78087265D01*
X179209431Y-78087267D01*
X179152114Y-78210184D01*
X179105941Y-78262623D01*
X179038748Y-78281775D01*
X178971867Y-78261559D01*
X178952051Y-78245460D01*
X176692819Y-75986228D01*
X176659334Y-75924905D01*
X176656500Y-75898547D01*
X176656500Y-74767742D01*
X176658224Y-74752122D01*
X176657939Y-74752096D01*
X176658671Y-74744340D01*
X176658673Y-74744333D01*
X176656500Y-74675185D01*
X176656500Y-74645650D01*
X176655631Y-74638772D01*
X176655172Y-74632943D01*
X176653709Y-74586372D01*
X176648122Y-74567144D01*
X176644174Y-74548084D01*
X176641663Y-74528204D01*
X176624512Y-74484887D01*
X176622619Y-74479358D01*
X176609618Y-74434609D01*
X176609616Y-74434606D01*
X176599423Y-74417371D01*
X176590861Y-74399894D01*
X176583487Y-74381270D01*
X176583486Y-74381268D01*
X176556079Y-74343545D01*
X176552888Y-74338686D01*
X176552384Y-74337834D01*
X176529170Y-74298580D01*
X176529168Y-74298578D01*
X176529165Y-74298574D01*
X176515006Y-74284415D01*
X176502368Y-74269619D01*
X176490594Y-74253413D01*
X176454688Y-74223709D01*
X176450376Y-74219786D01*
X176224892Y-73994302D01*
X176191407Y-73932979D01*
X176190736Y-73887258D01*
X176190586Y-73887245D01*
X176190715Y-73885846D01*
X176190686Y-73883826D01*
X176191110Y-73881551D01*
X176191115Y-73881536D01*
X176211643Y-73660000D01*
X176191115Y-73438464D01*
X176130229Y-73224472D01*
X176130224Y-73224461D01*
X176031061Y-73025316D01*
X176031056Y-73025308D01*
X175896979Y-72847761D01*
X175732562Y-72697876D01*
X175732560Y-72697874D01*
X175543404Y-72580754D01*
X175543395Y-72580750D01*
X175490157Y-72560126D01*
X175434755Y-72517553D01*
X175411164Y-72451786D01*
X175426875Y-72383706D01*
X175476899Y-72334927D01*
X175534950Y-72320499D01*
X175753871Y-72320499D01*
X175753872Y-72320499D01*
X175813483Y-72314091D01*
X175948331Y-72263796D01*
X176063546Y-72177546D01*
X176149796Y-72062331D01*
X176200091Y-71927483D01*
X176206500Y-71867873D01*
X176206499Y-70372128D01*
X176200091Y-70312517D01*
X176198318Y-70307764D01*
X176149797Y-70177671D01*
X176149793Y-70177664D01*
X176063547Y-70062455D01*
X176063544Y-70062452D01*
X175948335Y-69976206D01*
X175948328Y-69976202D01*
X175813482Y-69925908D01*
X175813483Y-69925908D01*
X175753883Y-69919501D01*
X175753881Y-69919500D01*
X175753873Y-69919500D01*
X175753865Y-69919500D01*
X175534953Y-69919500D01*
X175467914Y-69899815D01*
X175422159Y-69847011D01*
X175412215Y-69777853D01*
X175441240Y-69714297D01*
X175490159Y-69679873D01*
X175543401Y-69659247D01*
X175732562Y-69542124D01*
X175896981Y-69392236D01*
X176031058Y-69214689D01*
X176130229Y-69015528D01*
X176191115Y-68801536D01*
X176211643Y-68580000D01*
X176191115Y-68358464D01*
X176130229Y-68144472D01*
X176130224Y-68144461D01*
X176031061Y-67945316D01*
X176031056Y-67945308D01*
X175896979Y-67767761D01*
X175732562Y-67617876D01*
X175732560Y-67617874D01*
X175543404Y-67500754D01*
X175543395Y-67500750D01*
X175449956Y-67464552D01*
X175349475Y-67425625D01*
X175294075Y-67383054D01*
X175270484Y-67317288D01*
X175286195Y-67249207D01*
X175336219Y-67200428D01*
X175349466Y-67194377D01*
X175543401Y-67119247D01*
X175732562Y-67002124D01*
X175896981Y-66852236D01*
X176031058Y-66674689D01*
X176130229Y-66475528D01*
X176191115Y-66261536D01*
X176211643Y-66040000D01*
X176191115Y-65818464D01*
X176130229Y-65604472D01*
X176130224Y-65604461D01*
X176031061Y-65405316D01*
X176031056Y-65405308D01*
X175896979Y-65227761D01*
X175732562Y-65077876D01*
X175732560Y-65077874D01*
X175543404Y-64960754D01*
X175543395Y-64960750D01*
X175490157Y-64940126D01*
X175434755Y-64897553D01*
X175411164Y-64831786D01*
X175426875Y-64763706D01*
X175476899Y-64714927D01*
X175534950Y-64700499D01*
X175753871Y-64700499D01*
X175753872Y-64700499D01*
X175813483Y-64694091D01*
X175948331Y-64643796D01*
X176063546Y-64557546D01*
X176149796Y-64442331D01*
X176200091Y-64307483D01*
X176206500Y-64247873D01*
X176206499Y-62752128D01*
X176200091Y-62692517D01*
X176198318Y-62687764D01*
X176149797Y-62557671D01*
X176149793Y-62557664D01*
X176063547Y-62442455D01*
X176063544Y-62442452D01*
X175948335Y-62356206D01*
X175948328Y-62356202D01*
X175813482Y-62305908D01*
X175813483Y-62305908D01*
X175753883Y-62299501D01*
X175753881Y-62299500D01*
X175753873Y-62299500D01*
X175753865Y-62299500D01*
X175534953Y-62299500D01*
X175467914Y-62279815D01*
X175422159Y-62227011D01*
X175412215Y-62157853D01*
X175441240Y-62094297D01*
X175490159Y-62059873D01*
X175543398Y-62039248D01*
X175543396Y-62039248D01*
X175543401Y-62039247D01*
X175732562Y-61922124D01*
X175896981Y-61772236D01*
X176031058Y-61594689D01*
X176130229Y-61395528D01*
X176191115Y-61181536D01*
X176211643Y-60960000D01*
X176191115Y-60738464D01*
X176130229Y-60524472D01*
X176130224Y-60524461D01*
X176031061Y-60325316D01*
X176031056Y-60325308D01*
X175896979Y-60147761D01*
X175732562Y-59997876D01*
X175732560Y-59997874D01*
X175543404Y-59880754D01*
X175543395Y-59880750D01*
X175449956Y-59844552D01*
X175349475Y-59805625D01*
X175294075Y-59763054D01*
X175270484Y-59697288D01*
X175286195Y-59629207D01*
X175336219Y-59580428D01*
X175349466Y-59574377D01*
X175543401Y-59499247D01*
X175732562Y-59382124D01*
X175896981Y-59232236D01*
X176031058Y-59054689D01*
X176130229Y-58855528D01*
X176191115Y-58641536D01*
X176211643Y-58420000D01*
X176191115Y-58198464D01*
X176130229Y-57984472D01*
X176130224Y-57984461D01*
X176031061Y-57785316D01*
X176031056Y-57785308D01*
X175896979Y-57607761D01*
X175732562Y-57457876D01*
X175732560Y-57457874D01*
X175543404Y-57340754D01*
X175543395Y-57340750D01*
X175490157Y-57320126D01*
X175434755Y-57277553D01*
X175411164Y-57211786D01*
X175426875Y-57143706D01*
X175476899Y-57094927D01*
X175534950Y-57080499D01*
X175753871Y-57080499D01*
X175753872Y-57080499D01*
X175813483Y-57074091D01*
X175948331Y-57023796D01*
X176063546Y-56937546D01*
X176149796Y-56822331D01*
X176200091Y-56687483D01*
X176206500Y-56627873D01*
X176206499Y-55132128D01*
X176200091Y-55072517D01*
X176149796Y-54937669D01*
X176149795Y-54937668D01*
X176149793Y-54937664D01*
X176063547Y-54822455D01*
X176063544Y-54822452D01*
X175948335Y-54736206D01*
X175948328Y-54736202D01*
X175813482Y-54685908D01*
X175813483Y-54685908D01*
X175753883Y-54679501D01*
X175753881Y-54679500D01*
X175753873Y-54679500D01*
X175753865Y-54679500D01*
X175534953Y-54679500D01*
X175467914Y-54659815D01*
X175422159Y-54607011D01*
X175412215Y-54537853D01*
X175441240Y-54474297D01*
X175490159Y-54439873D01*
X175543398Y-54419248D01*
X175543396Y-54419248D01*
X175543401Y-54419247D01*
X175732562Y-54302124D01*
X175872282Y-54174751D01*
X175896979Y-54152238D01*
X175962503Y-54065471D01*
X176031058Y-53974689D01*
X176130229Y-53775528D01*
X176191115Y-53561536D01*
X176211643Y-53340000D01*
X176191115Y-53118464D01*
X176130229Y-52904472D01*
X176130224Y-52904461D01*
X176031061Y-52705316D01*
X176031056Y-52705308D01*
X175896979Y-52527761D01*
X175732562Y-52377876D01*
X175732560Y-52377874D01*
X175543404Y-52260754D01*
X175543395Y-52260750D01*
X175427000Y-52215659D01*
X175349475Y-52185625D01*
X175294075Y-52143054D01*
X175270484Y-52077288D01*
X175286195Y-52009207D01*
X175336219Y-51960428D01*
X175349466Y-51954377D01*
X175543401Y-51879247D01*
X175732562Y-51762124D01*
X175896981Y-51612236D01*
X176031058Y-51434689D01*
X176130229Y-51235528D01*
X176191115Y-51021536D01*
X176211643Y-50800000D01*
X176191115Y-50578464D01*
X176130229Y-50364472D01*
X176130224Y-50364461D01*
X176031061Y-50165316D01*
X176031056Y-50165308D01*
X175896979Y-49987761D01*
X175732562Y-49837876D01*
X175732560Y-49837874D01*
X175543404Y-49720754D01*
X175543398Y-49720752D01*
X175335940Y-49640382D01*
X175117243Y-49599500D01*
X174894757Y-49599500D01*
X174676060Y-49640382D01*
X174544864Y-49691207D01*
X174468601Y-49720752D01*
X174468595Y-49720754D01*
X174279439Y-49837874D01*
X174279437Y-49837876D01*
X174115020Y-49987761D01*
X173980943Y-50165308D01*
X173980938Y-50165316D01*
X173881775Y-50364461D01*
X173881769Y-50364476D01*
X173820885Y-50578462D01*
X173820884Y-50578464D01*
X173800357Y-50799999D01*
X173800357Y-50800000D01*
X173820885Y-51021536D01*
X173821315Y-51023837D01*
X173821201Y-51024955D01*
X173821414Y-51027245D01*
X173820966Y-51027286D01*
X173814283Y-51093352D01*
X173787107Y-51134301D01*
X173597208Y-51324199D01*
X173584951Y-51334020D01*
X173585134Y-51334241D01*
X173579123Y-51339213D01*
X173531772Y-51389636D01*
X173510889Y-51410519D01*
X173510877Y-51410532D01*
X173506621Y-51416017D01*
X173502837Y-51420447D01*
X173470937Y-51454418D01*
X173470936Y-51454420D01*
X173461284Y-51471976D01*
X173450610Y-51488226D01*
X173438329Y-51504061D01*
X173438324Y-51504068D01*
X173419815Y-51546838D01*
X173417245Y-51552084D01*
X173394803Y-51592906D01*
X173389822Y-51612307D01*
X173383521Y-51630710D01*
X173375562Y-51649102D01*
X173375561Y-51649105D01*
X173368271Y-51695127D01*
X173367087Y-51700846D01*
X173355501Y-51745972D01*
X173355500Y-51745982D01*
X173355500Y-51766016D01*
X173353973Y-51785415D01*
X173350840Y-51805194D01*
X173350840Y-51805195D01*
X173355225Y-51851583D01*
X173355500Y-51857421D01*
X173355500Y-57312255D01*
X173353775Y-57327872D01*
X173354061Y-57327899D01*
X173353326Y-57335665D01*
X173355500Y-57404814D01*
X173355500Y-57434343D01*
X173355501Y-57434360D01*
X173356368Y-57441231D01*
X173356826Y-57447050D01*
X173358290Y-57493624D01*
X173358291Y-57493627D01*
X173363880Y-57512867D01*
X173367824Y-57531911D01*
X173370336Y-57551791D01*
X173387490Y-57595119D01*
X173389382Y-57600647D01*
X173402381Y-57645388D01*
X173412580Y-57662634D01*
X173421138Y-57680103D01*
X173428514Y-57698732D01*
X173455898Y-57736423D01*
X173459106Y-57741307D01*
X173482827Y-57781416D01*
X173482833Y-57781424D01*
X173496990Y-57795580D01*
X173509628Y-57810376D01*
X173521405Y-57826586D01*
X173521406Y-57826587D01*
X173557309Y-57856288D01*
X173561620Y-57860210D01*
X173674912Y-57973502D01*
X173787107Y-58085697D01*
X173820592Y-58147020D01*
X173821266Y-58192742D01*
X173821414Y-58192756D01*
X173821287Y-58194125D01*
X173821317Y-58196153D01*
X173820884Y-58198465D01*
X173800357Y-58419999D01*
X173800357Y-58420000D01*
X173820885Y-58641536D01*
X173821315Y-58643837D01*
X173821201Y-58644955D01*
X173821414Y-58647245D01*
X173820966Y-58647286D01*
X173814283Y-58713352D01*
X173787107Y-58754301D01*
X173597208Y-58944199D01*
X173584951Y-58954020D01*
X173585134Y-58954241D01*
X173579123Y-58959213D01*
X173531772Y-59009636D01*
X173510889Y-59030519D01*
X173510877Y-59030532D01*
X173506621Y-59036017D01*
X173502837Y-59040447D01*
X173470937Y-59074418D01*
X173470936Y-59074420D01*
X173461284Y-59091976D01*
X173450610Y-59108226D01*
X173438329Y-59124061D01*
X173438324Y-59124068D01*
X173419815Y-59166838D01*
X173417245Y-59172084D01*
X173394803Y-59212906D01*
X173389822Y-59232307D01*
X173383521Y-59250710D01*
X173375562Y-59269102D01*
X173375561Y-59269105D01*
X173368271Y-59315127D01*
X173367087Y-59320846D01*
X173355501Y-59365972D01*
X173355500Y-59365982D01*
X173355500Y-59386016D01*
X173353973Y-59405415D01*
X173350840Y-59425194D01*
X173350840Y-59425195D01*
X173355225Y-59471583D01*
X173355500Y-59477421D01*
X173355500Y-64932255D01*
X173353775Y-64947872D01*
X173354061Y-64947899D01*
X173353326Y-64955665D01*
X173355500Y-65024814D01*
X173355500Y-65054343D01*
X173355501Y-65054360D01*
X173356368Y-65061231D01*
X173356826Y-65067050D01*
X173358290Y-65113624D01*
X173358291Y-65113627D01*
X173363880Y-65132867D01*
X173367824Y-65151911D01*
X173370336Y-65171791D01*
X173387490Y-65215119D01*
X173389382Y-65220647D01*
X173402381Y-65265388D01*
X173412580Y-65282634D01*
X173421138Y-65300103D01*
X173428514Y-65318732D01*
X173455898Y-65356423D01*
X173459106Y-65361307D01*
X173482827Y-65401416D01*
X173482833Y-65401424D01*
X173496990Y-65415580D01*
X173509628Y-65430376D01*
X173521405Y-65446586D01*
X173521406Y-65446587D01*
X173557309Y-65476288D01*
X173561620Y-65480210D01*
X173674912Y-65593502D01*
X173787107Y-65705697D01*
X173820592Y-65767020D01*
X173821266Y-65812742D01*
X173821414Y-65812756D01*
X173821287Y-65814125D01*
X173821317Y-65816153D01*
X173820884Y-65818465D01*
X173800357Y-66039999D01*
X173800357Y-66040000D01*
X173820885Y-66261536D01*
X173821315Y-66263837D01*
X173821201Y-66264955D01*
X173821414Y-66267245D01*
X173820966Y-66267286D01*
X173814283Y-66333352D01*
X173787107Y-66374301D01*
X173597208Y-66564199D01*
X173584951Y-66574020D01*
X173585134Y-66574241D01*
X173579123Y-66579213D01*
X173531772Y-66629636D01*
X173510889Y-66650519D01*
X173510877Y-66650532D01*
X173506621Y-66656017D01*
X173502837Y-66660447D01*
X173470937Y-66694418D01*
X173470936Y-66694420D01*
X173461284Y-66711976D01*
X173450610Y-66728226D01*
X173438329Y-66744061D01*
X173438324Y-66744068D01*
X173419815Y-66786838D01*
X173417245Y-66792084D01*
X173394803Y-66832906D01*
X173389822Y-66852307D01*
X173383521Y-66870710D01*
X173375562Y-66889102D01*
X173375561Y-66889105D01*
X173368271Y-66935127D01*
X173367087Y-66940846D01*
X173355501Y-66985972D01*
X173355500Y-66985982D01*
X173355500Y-67006016D01*
X173353973Y-67025415D01*
X173350840Y-67045194D01*
X173350840Y-67045195D01*
X173355225Y-67091583D01*
X173355500Y-67097421D01*
X173355500Y-72552255D01*
X173353775Y-72567872D01*
X173354061Y-72567899D01*
X173353326Y-72575665D01*
X173355500Y-72644814D01*
X173355500Y-72674343D01*
X173355501Y-72674360D01*
X173356368Y-72681231D01*
X173356826Y-72687050D01*
X173358290Y-72733624D01*
X173358291Y-72733627D01*
X173363880Y-72752867D01*
X173367824Y-72771911D01*
X173369933Y-72788599D01*
X173370336Y-72791791D01*
X173387490Y-72835119D01*
X173389382Y-72840647D01*
X173402381Y-72885388D01*
X173412580Y-72902634D01*
X173421138Y-72920103D01*
X173428514Y-72938732D01*
X173455898Y-72976423D01*
X173459106Y-72981307D01*
X173482827Y-73021416D01*
X173482833Y-73021424D01*
X173496990Y-73035580D01*
X173509628Y-73050376D01*
X173521405Y-73066586D01*
X173521406Y-73066587D01*
X173557309Y-73096288D01*
X173561620Y-73100210D01*
X173674912Y-73213502D01*
X173787107Y-73325697D01*
X173820592Y-73387020D01*
X173821266Y-73432742D01*
X173821414Y-73432756D01*
X173821287Y-73434125D01*
X173821317Y-73436153D01*
X173820884Y-73438465D01*
X173800357Y-73659999D01*
X173800357Y-73660000D01*
X173820884Y-73881535D01*
X173820885Y-73881537D01*
X173881769Y-74095523D01*
X173881775Y-74095538D01*
X173980938Y-74294683D01*
X173980943Y-74294691D01*
X174115020Y-74472238D01*
X174279437Y-74622123D01*
X174279439Y-74622125D01*
X174468595Y-74739245D01*
X174468596Y-74739245D01*
X174468599Y-74739247D01*
X174662524Y-74814374D01*
X174717924Y-74856946D01*
X174741515Y-74922713D01*
X174725804Y-74990793D01*
X174675780Y-75039572D01*
X174662533Y-75045622D01*
X174521846Y-75100125D01*
X174468601Y-75120752D01*
X174468595Y-75120754D01*
X174279439Y-75237874D01*
X174279437Y-75237876D01*
X174115020Y-75387761D01*
X173980943Y-75565308D01*
X173980938Y-75565316D01*
X173881775Y-75764461D01*
X173881769Y-75764476D01*
X173820885Y-75978462D01*
X173820884Y-75978464D01*
X173800357Y-76199999D01*
X173800357Y-76200000D01*
X173820884Y-76421535D01*
X173820885Y-76421537D01*
X173881769Y-76635523D01*
X173881775Y-76635538D01*
X173980938Y-76834683D01*
X173980943Y-76834691D01*
X174115020Y-77012238D01*
X174279437Y-77162123D01*
X174279439Y-77162125D01*
X174468595Y-77279245D01*
X174468607Y-77279251D01*
X174521841Y-77299873D01*
X174577244Y-77342445D01*
X174600835Y-77408211D01*
X174585125Y-77476292D01*
X174535101Y-77525072D01*
X174477050Y-77539500D01*
X174258130Y-77539500D01*
X174258123Y-77539501D01*
X174198516Y-77545908D01*
X174063671Y-77596202D01*
X174063664Y-77596206D01*
X173948455Y-77682452D01*
X173948452Y-77682455D01*
X173862206Y-77797664D01*
X173862202Y-77797671D01*
X173811908Y-77932517D01*
X173805501Y-77992116D01*
X173805501Y-77992123D01*
X173805500Y-77992135D01*
X173805500Y-79487870D01*
X173805501Y-79487876D01*
X173811908Y-79547483D01*
X173862202Y-79682328D01*
X173862203Y-79682330D01*
X173871081Y-79694189D01*
X173895498Y-79759653D01*
X173880647Y-79827926D01*
X173831242Y-79877332D01*
X173771814Y-79892500D01*
X171024737Y-79892500D01*
X171009120Y-79890776D01*
X171009093Y-79891062D01*
X171001331Y-79890327D01*
X170932203Y-79892500D01*
X170902650Y-79892500D01*
X170901929Y-79892590D01*
X170895757Y-79893369D01*
X170889945Y-79893826D01*
X170843373Y-79895290D01*
X170843372Y-79895290D01*
X170824129Y-79900881D01*
X170805079Y-79904825D01*
X170785211Y-79907334D01*
X170785209Y-79907335D01*
X170741884Y-79924488D01*
X170736357Y-79926380D01*
X170691610Y-79939381D01*
X170691609Y-79939382D01*
X170674367Y-79949579D01*
X170656899Y-79958137D01*
X170638269Y-79965513D01*
X170638267Y-79965514D01*
X170600576Y-79992898D01*
X170595694Y-79996105D01*
X170555579Y-80019830D01*
X170541408Y-80034000D01*
X170526623Y-80046628D01*
X170510412Y-80058407D01*
X170480709Y-80094310D01*
X170476777Y-80098631D01*
X170001892Y-80573515D01*
X169940569Y-80607000D01*
X169891426Y-80607722D01*
X169783243Y-80587500D01*
X169560757Y-80587500D01*
X169342060Y-80628382D01*
X169210864Y-80679207D01*
X169134601Y-80708752D01*
X169134595Y-80708754D01*
X168945439Y-80825874D01*
X168945437Y-80825876D01*
X168781020Y-80975761D01*
X168646943Y-81153308D01*
X168646938Y-81153316D01*
X168547775Y-81352461D01*
X168547769Y-81352476D01*
X168486885Y-81566462D01*
X168486884Y-81566464D01*
X168466357Y-81787999D01*
X168466357Y-81788000D01*
X168486884Y-82009535D01*
X168486885Y-82009537D01*
X168547769Y-82223523D01*
X168547775Y-82223538D01*
X168646938Y-82422683D01*
X168646943Y-82422691D01*
X168781020Y-82600238D01*
X168945437Y-82750123D01*
X168945439Y-82750125D01*
X169134595Y-82867245D01*
X169134596Y-82867245D01*
X169134599Y-82867247D01*
X169342060Y-82947618D01*
X169560757Y-82988500D01*
X169560759Y-82988500D01*
X169783241Y-82988500D01*
X169783243Y-82988500D01*
X170001940Y-82947618D01*
X170209401Y-82867247D01*
X170398562Y-82750124D01*
X170562981Y-82600236D01*
X170697058Y-82422689D01*
X170796229Y-82223528D01*
X170857115Y-82009536D01*
X170877643Y-81788000D01*
X170857115Y-81566464D01*
X170857112Y-81566454D01*
X170856685Y-81564167D01*
X170856798Y-81563046D01*
X170856586Y-81560755D01*
X170857034Y-81560713D01*
X170863713Y-81494651D01*
X170890887Y-81453701D01*
X171164773Y-81179817D01*
X171226096Y-81146334D01*
X171252453Y-81143500D01*
X176071559Y-81143500D01*
X176138598Y-81163185D01*
X176184353Y-81215989D01*
X176194297Y-81285147D01*
X176182560Y-81322771D01*
X176167774Y-81352465D01*
X176167769Y-81352476D01*
X176106885Y-81566462D01*
X176106884Y-81566464D01*
X176086357Y-81787999D01*
X176086357Y-81788000D01*
X176106884Y-82009535D01*
X176106885Y-82009537D01*
X176167769Y-82223523D01*
X176167775Y-82223538D01*
X176266938Y-82422683D01*
X176266943Y-82422691D01*
X176401020Y-82600238D01*
X176565437Y-82750123D01*
X176565439Y-82750125D01*
X176754595Y-82867245D01*
X176754596Y-82867245D01*
X176754599Y-82867247D01*
X176962060Y-82947618D01*
X177180757Y-82988500D01*
X177180759Y-82988500D01*
X177403241Y-82988500D01*
X177403243Y-82988500D01*
X177621940Y-82947618D01*
X177829401Y-82867247D01*
X178018562Y-82750124D01*
X178182981Y-82600236D01*
X178317058Y-82422689D01*
X178416229Y-82223528D01*
X178477115Y-82009536D01*
X178497643Y-81788000D01*
X178477115Y-81566464D01*
X178437440Y-81427020D01*
X178438026Y-81357157D01*
X178476293Y-81298698D01*
X178540090Y-81270207D01*
X178609163Y-81280731D01*
X178644387Y-81305408D01*
X179706552Y-82367573D01*
X179740037Y-82428896D01*
X179735053Y-82498588D01*
X179693181Y-82554521D01*
X179684149Y-82560680D01*
X179613744Y-82604273D01*
X179613739Y-82604277D01*
X179449391Y-82754099D01*
X179315368Y-82931574D01*
X179216239Y-83130650D01*
X179163505Y-83316000D01*
X180060440Y-83316000D01*
X180021722Y-83358059D01*
X179971449Y-83472670D01*
X179961114Y-83597395D01*
X179991837Y-83718719D01*
X180055394Y-83816000D01*
X179163505Y-83816000D01*
X179216239Y-84001349D01*
X179315368Y-84200425D01*
X179449391Y-84377900D01*
X179613738Y-84527721D01*
X179802820Y-84644797D01*
X179802822Y-84644798D01*
X180010195Y-84725135D01*
X180090000Y-84740052D01*
X180090000Y-83846617D01*
X180159052Y-83900363D01*
X180277424Y-83941000D01*
X180371073Y-83941000D01*
X180463446Y-83925586D01*
X180573514Y-83866019D01*
X180590000Y-83848110D01*
X180590000Y-84740052D01*
X180669804Y-84725135D01*
X180877177Y-84644798D01*
X180877179Y-84644797D01*
X181066258Y-84527723D01*
X181170678Y-84432532D01*
X181233482Y-84401915D01*
X181302869Y-84410112D01*
X181341896Y-84436487D01*
X181630544Y-84725135D01*
X181880197Y-84974788D01*
X181890022Y-84987051D01*
X181890243Y-84986869D01*
X181895214Y-84992878D01*
X181913875Y-85010401D01*
X181945635Y-85040226D01*
X181966529Y-85061120D01*
X181972011Y-85065373D01*
X181976443Y-85069157D01*
X182010418Y-85101062D01*
X182027976Y-85110714D01*
X182044233Y-85121393D01*
X182060064Y-85133673D01*
X182079737Y-85142186D01*
X182102833Y-85152182D01*
X182108077Y-85154750D01*
X182148908Y-85177197D01*
X182161523Y-85180435D01*
X182168305Y-85182177D01*
X182186719Y-85188481D01*
X182205104Y-85196438D01*
X182251157Y-85203732D01*
X182256826Y-85204906D01*
X182301981Y-85216500D01*
X182322016Y-85216500D01*
X182341413Y-85218026D01*
X182361196Y-85221160D01*
X182407584Y-85216775D01*
X182413422Y-85216500D01*
X186362257Y-85216500D01*
X186377877Y-85218224D01*
X186377904Y-85217939D01*
X186385661Y-85218671D01*
X186385667Y-85218673D01*
X186431605Y-85217229D01*
X186499229Y-85234798D01*
X186546620Y-85286138D01*
X186559500Y-85341168D01*
X186559500Y-86043833D01*
X186570003Y-86146638D01*
X186625202Y-86313217D01*
X186625204Y-86313222D01*
X186717331Y-86462582D01*
X186841418Y-86586669D01*
X186841422Y-86586672D01*
X186924575Y-86637962D01*
X186971300Y-86689910D01*
X186982521Y-86758872D01*
X186954678Y-86822954D01*
X186896609Y-86861810D01*
X186859478Y-86867500D01*
X160144500Y-86867500D01*
X160077461Y-86847815D01*
X160031706Y-86795011D01*
X160020500Y-86743500D01*
X160020500Y-84463870D01*
X161971500Y-84463870D01*
X161971501Y-84463876D01*
X161977908Y-84523483D01*
X162028202Y-84658328D01*
X162028206Y-84658335D01*
X162114452Y-84773544D01*
X162114455Y-84773547D01*
X162229664Y-84859793D01*
X162229671Y-84859797D01*
X162364517Y-84910091D01*
X162364516Y-84910091D01*
X162371444Y-84910835D01*
X162424127Y-84916500D01*
X164219872Y-84916499D01*
X164279483Y-84910091D01*
X164414331Y-84859796D01*
X164529546Y-84773546D01*
X164615796Y-84658331D01*
X164664810Y-84526916D01*
X164706681Y-84470984D01*
X164772145Y-84446566D01*
X164840418Y-84461417D01*
X164868673Y-84482569D01*
X164990599Y-84604495D01*
X165087384Y-84672265D01*
X165184165Y-84740032D01*
X165184167Y-84740033D01*
X165184170Y-84740035D01*
X165398337Y-84839903D01*
X165626592Y-84901063D01*
X165803034Y-84916500D01*
X165861999Y-84921659D01*
X165862000Y-84921659D01*
X165862001Y-84921659D01*
X165920966Y-84916500D01*
X166097408Y-84901063D01*
X166325663Y-84839903D01*
X166539830Y-84740035D01*
X166733401Y-84604495D01*
X166900495Y-84437401D01*
X167036035Y-84243830D01*
X167135903Y-84029663D01*
X167197063Y-83801408D01*
X167217659Y-83566000D01*
X167214754Y-83532802D01*
X167206635Y-83440000D01*
X167197063Y-83330592D01*
X167135903Y-83102337D01*
X167036035Y-82888171D01*
X166942158Y-82754099D01*
X166900494Y-82694597D01*
X166733402Y-82527506D01*
X166733395Y-82527501D01*
X166539834Y-82391967D01*
X166539830Y-82391965D01*
X166487521Y-82367573D01*
X166325663Y-82292097D01*
X166325659Y-82292096D01*
X166325655Y-82292094D01*
X166097413Y-82230938D01*
X166097403Y-82230936D01*
X165862001Y-82210341D01*
X165861999Y-82210341D01*
X165626596Y-82230936D01*
X165626586Y-82230938D01*
X165398344Y-82292094D01*
X165398335Y-82292098D01*
X165184171Y-82391964D01*
X165184169Y-82391965D01*
X164990600Y-82527503D01*
X164868673Y-82649430D01*
X164807350Y-82682914D01*
X164737658Y-82677930D01*
X164681725Y-82636058D01*
X164664810Y-82605081D01*
X164615797Y-82473671D01*
X164615793Y-82473664D01*
X164529547Y-82358455D01*
X164529544Y-82358452D01*
X164414335Y-82272206D01*
X164414328Y-82272202D01*
X164279482Y-82221908D01*
X164279483Y-82221908D01*
X164219883Y-82215501D01*
X164219881Y-82215500D01*
X164219873Y-82215500D01*
X164219864Y-82215500D01*
X162424129Y-82215500D01*
X162424123Y-82215501D01*
X162364516Y-82221908D01*
X162229671Y-82272202D01*
X162229664Y-82272206D01*
X162114455Y-82358452D01*
X162114452Y-82358455D01*
X162028206Y-82473664D01*
X162028202Y-82473671D01*
X161977908Y-82608517D01*
X161971501Y-82668116D01*
X161971500Y-82668135D01*
X161971500Y-84463870D01*
X160020500Y-84463870D01*
X160020500Y-78740000D01*
X168466357Y-78740000D01*
X168486884Y-78961535D01*
X168486885Y-78961537D01*
X168547769Y-79175523D01*
X168547775Y-79175538D01*
X168646938Y-79374683D01*
X168646943Y-79374691D01*
X168781020Y-79552238D01*
X168945437Y-79702123D01*
X168945439Y-79702125D01*
X169134595Y-79819245D01*
X169134596Y-79819245D01*
X169134599Y-79819247D01*
X169342060Y-79899618D01*
X169560757Y-79940500D01*
X169560759Y-79940500D01*
X169783241Y-79940500D01*
X169783243Y-79940500D01*
X170001940Y-79899618D01*
X170209401Y-79819247D01*
X170398562Y-79702124D01*
X170562981Y-79552236D01*
X170697058Y-79374689D01*
X170796229Y-79175528D01*
X170857115Y-78961536D01*
X170877643Y-78740000D01*
X170857115Y-78518464D01*
X170796229Y-78304472D01*
X170796224Y-78304461D01*
X170697061Y-78105316D01*
X170697056Y-78105308D01*
X170562979Y-77927761D01*
X170398562Y-77777876D01*
X170398560Y-77777874D01*
X170209404Y-77660754D01*
X170209398Y-77660752D01*
X170001940Y-77580382D01*
X169783243Y-77539500D01*
X169560757Y-77539500D01*
X169342060Y-77580382D01*
X169210864Y-77631207D01*
X169134601Y-77660752D01*
X169134595Y-77660754D01*
X168945439Y-77777874D01*
X168945437Y-77777876D01*
X168781020Y-77927761D01*
X168646943Y-78105308D01*
X168646938Y-78105316D01*
X168547775Y-78304461D01*
X168547769Y-78304476D01*
X168486885Y-78518462D01*
X168486884Y-78518464D01*
X168466357Y-78739999D01*
X168466357Y-78740000D01*
X160020500Y-78740000D01*
X160020500Y-73660000D01*
X161966341Y-73660000D01*
X161986936Y-73895403D01*
X161986938Y-73895413D01*
X162048094Y-74123655D01*
X162048096Y-74123659D01*
X162048097Y-74123663D01*
X162108600Y-74253411D01*
X162147965Y-74337830D01*
X162147967Y-74337834D01*
X162256281Y-74492521D01*
X162283505Y-74531401D01*
X162450599Y-74698495D01*
X162547384Y-74766265D01*
X162644165Y-74834032D01*
X162644167Y-74834033D01*
X162644170Y-74834035D01*
X162858337Y-74933903D01*
X163086592Y-74995063D01*
X163274918Y-75011539D01*
X163321999Y-75015659D01*
X163322000Y-75015659D01*
X163322001Y-75015659D01*
X163361234Y-75012226D01*
X163557408Y-74995063D01*
X163785663Y-74933903D01*
X163999830Y-74834035D01*
X164193401Y-74698495D01*
X164360495Y-74531401D01*
X164496035Y-74337830D01*
X164595903Y-74123663D01*
X164657063Y-73895408D01*
X164677659Y-73660000D01*
X164657063Y-73424592D01*
X164595903Y-73196337D01*
X164496035Y-72982171D01*
X164492010Y-72976423D01*
X164360496Y-72788600D01*
X164305520Y-72733624D01*
X164238567Y-72666671D01*
X164205084Y-72605351D01*
X164210068Y-72535659D01*
X164251939Y-72479725D01*
X164282915Y-72462810D01*
X164414331Y-72413796D01*
X164529546Y-72327546D01*
X164615796Y-72212331D01*
X164666091Y-72077483D01*
X164672500Y-72017873D01*
X164672499Y-71120000D01*
X168466357Y-71120000D01*
X168486884Y-71341535D01*
X168486885Y-71341537D01*
X168547769Y-71555523D01*
X168547775Y-71555538D01*
X168646938Y-71754683D01*
X168646943Y-71754691D01*
X168781020Y-71932238D01*
X168945437Y-72082123D01*
X168945439Y-72082125D01*
X169134595Y-72199245D01*
X169134596Y-72199245D01*
X169134599Y-72199247D01*
X169342060Y-72279618D01*
X169560757Y-72320500D01*
X169560759Y-72320500D01*
X169783241Y-72320500D01*
X169783243Y-72320500D01*
X170001940Y-72279618D01*
X170209401Y-72199247D01*
X170398562Y-72082124D01*
X170562981Y-71932236D01*
X170697058Y-71754689D01*
X170796229Y-71555528D01*
X170857115Y-71341536D01*
X170877643Y-71120000D01*
X170857115Y-70898464D01*
X170796229Y-70684472D01*
X170796224Y-70684461D01*
X170697061Y-70485316D01*
X170697056Y-70485308D01*
X170562979Y-70307761D01*
X170398562Y-70157876D01*
X170398560Y-70157874D01*
X170209404Y-70040754D01*
X170209395Y-70040750D01*
X170115956Y-70004552D01*
X170015475Y-69965625D01*
X169960075Y-69923054D01*
X169936484Y-69857288D01*
X169952195Y-69789207D01*
X170002219Y-69740428D01*
X170015466Y-69734377D01*
X170209401Y-69659247D01*
X170398562Y-69542124D01*
X170562981Y-69392236D01*
X170697058Y-69214689D01*
X170796229Y-69015528D01*
X170857115Y-68801536D01*
X170877643Y-68580000D01*
X170857115Y-68358464D01*
X170796229Y-68144472D01*
X170796224Y-68144461D01*
X170697061Y-67945316D01*
X170697056Y-67945308D01*
X170562979Y-67767761D01*
X170398562Y-67617876D01*
X170398560Y-67617874D01*
X170209404Y-67500754D01*
X170209398Y-67500752D01*
X170209388Y-67500748D01*
X170001940Y-67420382D01*
X169783243Y-67379500D01*
X169560757Y-67379500D01*
X169342060Y-67420382D01*
X169210864Y-67471207D01*
X169134601Y-67500752D01*
X169134595Y-67500754D01*
X168945439Y-67617874D01*
X168945437Y-67617876D01*
X168781020Y-67767761D01*
X168646943Y-67945308D01*
X168646938Y-67945316D01*
X168547775Y-68144461D01*
X168547769Y-68144476D01*
X168486885Y-68358462D01*
X168486884Y-68358464D01*
X168466357Y-68579999D01*
X168466357Y-68580000D01*
X168486884Y-68801535D01*
X168486885Y-68801537D01*
X168547769Y-69015523D01*
X168547775Y-69015538D01*
X168646938Y-69214683D01*
X168646943Y-69214691D01*
X168781020Y-69392238D01*
X168945437Y-69542123D01*
X168945439Y-69542125D01*
X169134595Y-69659245D01*
X169134596Y-69659245D01*
X169134599Y-69659247D01*
X169328524Y-69734374D01*
X169383924Y-69776946D01*
X169407515Y-69842713D01*
X169391804Y-69910793D01*
X169341780Y-69959572D01*
X169328533Y-69965622D01*
X169180488Y-70022975D01*
X169134601Y-70040752D01*
X169134595Y-70040754D01*
X168945439Y-70157874D01*
X168945437Y-70157876D01*
X168781020Y-70307761D01*
X168646943Y-70485308D01*
X168646938Y-70485316D01*
X168547775Y-70684461D01*
X168547769Y-70684476D01*
X168486885Y-70898462D01*
X168486884Y-70898464D01*
X168466357Y-71119999D01*
X168466357Y-71120000D01*
X164672499Y-71120000D01*
X164672499Y-70222128D01*
X164666091Y-70162517D01*
X164664359Y-70157874D01*
X164615797Y-70027671D01*
X164615793Y-70027664D01*
X164529547Y-69912455D01*
X164529544Y-69912452D01*
X164414335Y-69826206D01*
X164414328Y-69826202D01*
X164279482Y-69775908D01*
X164279483Y-69775908D01*
X164219883Y-69769501D01*
X164219881Y-69769500D01*
X164219873Y-69769500D01*
X164219864Y-69769500D01*
X162424129Y-69769500D01*
X162424123Y-69769501D01*
X162364516Y-69775908D01*
X162229671Y-69826202D01*
X162229664Y-69826206D01*
X162114455Y-69912452D01*
X162114452Y-69912455D01*
X162028206Y-70027664D01*
X162028202Y-70027671D01*
X161977908Y-70162517D01*
X161971820Y-70219152D01*
X161971501Y-70222123D01*
X161971500Y-70222135D01*
X161971500Y-72017870D01*
X161971501Y-72017876D01*
X161977908Y-72077483D01*
X162028202Y-72212328D01*
X162028206Y-72212335D01*
X162114452Y-72327544D01*
X162114455Y-72327547D01*
X162229664Y-72413793D01*
X162229671Y-72413797D01*
X162361081Y-72462810D01*
X162417015Y-72504681D01*
X162441432Y-72570145D01*
X162426580Y-72638418D01*
X162405430Y-72666673D01*
X162283503Y-72788600D01*
X162147965Y-72982169D01*
X162147964Y-72982171D01*
X162048098Y-73196335D01*
X162048094Y-73196344D01*
X161986938Y-73424586D01*
X161986936Y-73424596D01*
X161966341Y-73659999D01*
X161966341Y-73660000D01*
X160020500Y-73660000D01*
X160020500Y-63500000D01*
X161966341Y-63500000D01*
X161986936Y-63735403D01*
X161986938Y-63735413D01*
X162048094Y-63963655D01*
X162048096Y-63963659D01*
X162048097Y-63963663D01*
X162108600Y-64093411D01*
X162147965Y-64177830D01*
X162147967Y-64177834D01*
X162256281Y-64332521D01*
X162283505Y-64371401D01*
X162450599Y-64538495D01*
X162538256Y-64599873D01*
X162644165Y-64674032D01*
X162644167Y-64674033D01*
X162644170Y-64674035D01*
X162858337Y-64773903D01*
X163086592Y-64835063D01*
X163274918Y-64851539D01*
X163321999Y-64855659D01*
X163322000Y-64855659D01*
X163322001Y-64855659D01*
X163361234Y-64852226D01*
X163557408Y-64835063D01*
X163785663Y-64773903D01*
X163999830Y-64674035D01*
X164193401Y-64538495D01*
X164360495Y-64371401D01*
X164496035Y-64177830D01*
X164595903Y-63963663D01*
X164657063Y-63735408D01*
X164677659Y-63500000D01*
X164657063Y-63264592D01*
X164595903Y-63036337D01*
X164496035Y-62822171D01*
X164477665Y-62795936D01*
X164360496Y-62628600D01*
X164331048Y-62599152D01*
X164238567Y-62506671D01*
X164205084Y-62445351D01*
X164210068Y-62375659D01*
X164251939Y-62319725D01*
X164282915Y-62302810D01*
X164414331Y-62253796D01*
X164529546Y-62167546D01*
X164615796Y-62052331D01*
X164666091Y-61917483D01*
X164672500Y-61857873D01*
X164672499Y-60960000D01*
X168466357Y-60960000D01*
X168486884Y-61181535D01*
X168486885Y-61181537D01*
X168547769Y-61395523D01*
X168547775Y-61395538D01*
X168646938Y-61594683D01*
X168646943Y-61594691D01*
X168781020Y-61772238D01*
X168945437Y-61922123D01*
X168945439Y-61922125D01*
X169134595Y-62039245D01*
X169134596Y-62039245D01*
X169134599Y-62039247D01*
X169342060Y-62119618D01*
X169560757Y-62160500D01*
X169560759Y-62160500D01*
X169783241Y-62160500D01*
X169783243Y-62160500D01*
X170001940Y-62119618D01*
X170209401Y-62039247D01*
X170398562Y-61922124D01*
X170562981Y-61772236D01*
X170697058Y-61594689D01*
X170796229Y-61395528D01*
X170857115Y-61181536D01*
X170877643Y-60960000D01*
X170857115Y-60738464D01*
X170796229Y-60524472D01*
X170796224Y-60524461D01*
X170697061Y-60325316D01*
X170697056Y-60325308D01*
X170562979Y-60147761D01*
X170398562Y-59997876D01*
X170398560Y-59997874D01*
X170209404Y-59880754D01*
X170209395Y-59880750D01*
X170115956Y-59844552D01*
X170015475Y-59805625D01*
X169960075Y-59763054D01*
X169936484Y-59697288D01*
X169952195Y-59629207D01*
X170002219Y-59580428D01*
X170015466Y-59574377D01*
X170209401Y-59499247D01*
X170398562Y-59382124D01*
X170562981Y-59232236D01*
X170697058Y-59054689D01*
X170796229Y-58855528D01*
X170857115Y-58641536D01*
X170877643Y-58420000D01*
X170857115Y-58198464D01*
X170796229Y-57984472D01*
X170796224Y-57984461D01*
X170697061Y-57785316D01*
X170697056Y-57785308D01*
X170562979Y-57607761D01*
X170398562Y-57457876D01*
X170398560Y-57457874D01*
X170209404Y-57340754D01*
X170209398Y-57340752D01*
X170209393Y-57340750D01*
X170001940Y-57260382D01*
X169783243Y-57219500D01*
X169560757Y-57219500D01*
X169342060Y-57260382D01*
X169265948Y-57289868D01*
X169134601Y-57340752D01*
X169134595Y-57340754D01*
X168945439Y-57457874D01*
X168945437Y-57457876D01*
X168781020Y-57607761D01*
X168646943Y-57785308D01*
X168646938Y-57785316D01*
X168547775Y-57984461D01*
X168547769Y-57984476D01*
X168486885Y-58198462D01*
X168486884Y-58198464D01*
X168466357Y-58419999D01*
X168466357Y-58420000D01*
X168486884Y-58641535D01*
X168486885Y-58641537D01*
X168547769Y-58855523D01*
X168547775Y-58855538D01*
X168646938Y-59054683D01*
X168646943Y-59054691D01*
X168781020Y-59232238D01*
X168945437Y-59382123D01*
X168945439Y-59382125D01*
X169134595Y-59499245D01*
X169134596Y-59499245D01*
X169134599Y-59499247D01*
X169328524Y-59574374D01*
X169383924Y-59616946D01*
X169407515Y-59682713D01*
X169391804Y-59750793D01*
X169341780Y-59799572D01*
X169328533Y-59805622D01*
X169187846Y-59860125D01*
X169134601Y-59880752D01*
X169134595Y-59880754D01*
X168945439Y-59997874D01*
X168945437Y-59997876D01*
X168781020Y-60147761D01*
X168646943Y-60325308D01*
X168646938Y-60325316D01*
X168547775Y-60524461D01*
X168547769Y-60524476D01*
X168486885Y-60738462D01*
X168486884Y-60738464D01*
X168466357Y-60959999D01*
X168466357Y-60960000D01*
X164672499Y-60960000D01*
X164672499Y-60062128D01*
X164666091Y-60002517D01*
X164664359Y-59997874D01*
X164615797Y-59867671D01*
X164615793Y-59867664D01*
X164529547Y-59752455D01*
X164529544Y-59752452D01*
X164414335Y-59666206D01*
X164414328Y-59666202D01*
X164279482Y-59615908D01*
X164279483Y-59615908D01*
X164219883Y-59609501D01*
X164219881Y-59609500D01*
X164219873Y-59609500D01*
X164219864Y-59609500D01*
X162424129Y-59609500D01*
X162424123Y-59609501D01*
X162364516Y-59615908D01*
X162229671Y-59666202D01*
X162229664Y-59666206D01*
X162114455Y-59752452D01*
X162114452Y-59752455D01*
X162028206Y-59867664D01*
X162028202Y-59867671D01*
X161977908Y-60002517D01*
X161974420Y-60034964D01*
X161971501Y-60062123D01*
X161971500Y-60062135D01*
X161971500Y-61857870D01*
X161971501Y-61857876D01*
X161977908Y-61917483D01*
X162028202Y-62052328D01*
X162028206Y-62052335D01*
X162114452Y-62167544D01*
X162114455Y-62167547D01*
X162229664Y-62253793D01*
X162229671Y-62253797D01*
X162361081Y-62302810D01*
X162417015Y-62344681D01*
X162441432Y-62410145D01*
X162426580Y-62478418D01*
X162405430Y-62506673D01*
X162283503Y-62628600D01*
X162147965Y-62822169D01*
X162147964Y-62822171D01*
X162048098Y-63036335D01*
X162048094Y-63036344D01*
X161986938Y-63264586D01*
X161986936Y-63264596D01*
X161966341Y-63499999D01*
X161966341Y-63500000D01*
X160020500Y-63500000D01*
X160020500Y-49400500D01*
X160040185Y-49333461D01*
X160092989Y-49287706D01*
X160144500Y-49276500D01*
X162164513Y-49276500D01*
X162231552Y-49296185D01*
G37*
%TD.AperFunction*%
%TA.AperFunction,Conductor*%
G36*
X190056327Y-85445265D02*
G01*
X190105887Y-85571541D01*
X190190465Y-85677599D01*
X190302547Y-85754016D01*
X190410299Y-85787253D01*
X189701199Y-86496351D01*
X189731650Y-86520050D01*
X189940210Y-86632918D01*
X189939526Y-86634181D01*
X189987971Y-86674902D01*
X190008659Y-86741639D01*
X189989983Y-86808966D01*
X189937872Y-86855509D01*
X189884673Y-86867500D01*
X189060522Y-86867500D01*
X188993483Y-86847815D01*
X188947728Y-86795011D01*
X188937784Y-86725853D01*
X188966809Y-86662297D01*
X188995425Y-86637962D01*
X189046585Y-86606405D01*
X189078581Y-86586670D01*
X189202670Y-86462581D01*
X189294797Y-86313220D01*
X189343819Y-86165278D01*
X189373844Y-86116601D01*
X190055549Y-85434895D01*
X190056327Y-85445265D01*
G37*
%TD.AperFunction*%
%TA.AperFunction,Conductor*%
G36*
X191651186Y-86141634D02*
G01*
X191665892Y-86119126D01*
X191719038Y-86073769D01*
X191788269Y-86064345D01*
X191851605Y-86093847D01*
X191873510Y-86119126D01*
X191931016Y-86207147D01*
X191931019Y-86207151D01*
X191931021Y-86207153D01*
X192088216Y-86377913D01*
X192088219Y-86377915D01*
X192088222Y-86377918D01*
X192271365Y-86520464D01*
X192271371Y-86520468D01*
X192271374Y-86520470D01*
X192475497Y-86630936D01*
X192480008Y-86633377D01*
X192479166Y-86634931D01*
X192526719Y-86674897D01*
X192547411Y-86741632D01*
X192528738Y-86808961D01*
X192476630Y-86855506D01*
X192423425Y-86867500D01*
X191115327Y-86867500D01*
X191048288Y-86847815D01*
X191002533Y-86795011D01*
X190992589Y-86725853D01*
X191021614Y-86662297D01*
X191060271Y-86633808D01*
X191059790Y-86632918D01*
X191268350Y-86520050D01*
X191298798Y-86496351D01*
X190588231Y-85785784D01*
X190634138Y-85778865D01*
X190756357Y-85720007D01*
X190855798Y-85627740D01*
X190923625Y-85510260D01*
X190941499Y-85431946D01*
X191651186Y-86141634D01*
G37*
%TD.AperFunction*%
%TA.AperFunction,Conductor*%
G36*
X195366198Y-49296185D02*
G01*
X195411953Y-49348989D01*
X195421897Y-49418147D01*
X195392872Y-49481703D01*
X195334094Y-49519477D01*
X195331263Y-49520271D01*
X195309535Y-49526094D01*
X195133511Y-49573258D01*
X195133502Y-49573261D01*
X194927267Y-49669431D01*
X194927265Y-49669432D01*
X194740858Y-49799954D01*
X194579954Y-49960858D01*
X194449432Y-50147265D01*
X194449431Y-50147267D01*
X194353261Y-50353502D01*
X194353258Y-50353511D01*
X194294366Y-50573302D01*
X194294364Y-50573313D01*
X194274532Y-50799998D01*
X194274532Y-50800001D01*
X194294364Y-51026686D01*
X194294366Y-51026697D01*
X194353258Y-51246488D01*
X194353261Y-51246497D01*
X194449431Y-51452732D01*
X194449432Y-51452734D01*
X194579954Y-51639141D01*
X194740858Y-51800045D01*
X194754656Y-51809706D01*
X194927266Y-51930568D01*
X194985865Y-51957893D01*
X195038305Y-52004065D01*
X195057457Y-52071258D01*
X195037242Y-52138139D01*
X194985867Y-52182657D01*
X194927511Y-52209869D01*
X194854527Y-52260972D01*
X194854526Y-52260973D01*
X195408432Y-52814878D01*
X195291542Y-52865651D01*
X195174261Y-52961066D01*
X195087072Y-53084585D01*
X195056645Y-53170198D01*
X194500973Y-52614526D01*
X194500972Y-52614527D01*
X194449868Y-52687513D01*
X194353734Y-52893673D01*
X194353730Y-52893682D01*
X194294860Y-53113389D01*
X194294858Y-53113400D01*
X194275034Y-53339997D01*
X194275034Y-53340002D01*
X194294858Y-53566599D01*
X194294860Y-53566610D01*
X194353730Y-53786317D01*
X194353734Y-53786326D01*
X194449865Y-53992481D01*
X194449866Y-53992483D01*
X194500973Y-54065471D01*
X194500974Y-54065472D01*
X195054070Y-53512375D01*
X195056884Y-53525915D01*
X195126442Y-53660156D01*
X195229638Y-53770652D01*
X195358819Y-53849209D01*
X195410002Y-53863549D01*
X194854526Y-54419025D01*
X194854526Y-54419026D01*
X194927512Y-54470131D01*
X194927520Y-54470135D01*
X194985865Y-54497342D01*
X195038305Y-54543514D01*
X195057457Y-54610707D01*
X195037242Y-54677589D01*
X194985867Y-54722105D01*
X194955629Y-54736206D01*
X194927264Y-54749433D01*
X194740858Y-54879954D01*
X194579954Y-55040858D01*
X194449432Y-55227265D01*
X194449431Y-55227267D01*
X194353261Y-55433502D01*
X194353258Y-55433511D01*
X194294366Y-55653302D01*
X194294364Y-55653313D01*
X194274532Y-55879998D01*
X194274532Y-55880001D01*
X194294364Y-56106686D01*
X194294366Y-56106697D01*
X194353258Y-56326488D01*
X194353261Y-56326497D01*
X194449431Y-56532732D01*
X194449432Y-56532734D01*
X194579954Y-56719141D01*
X194740858Y-56880045D01*
X194740861Y-56880047D01*
X194927266Y-57010568D01*
X194985275Y-57037618D01*
X195037714Y-57083791D01*
X195056866Y-57150984D01*
X195036650Y-57217865D01*
X194985275Y-57262382D01*
X194927267Y-57289431D01*
X194927265Y-57289432D01*
X194740858Y-57419954D01*
X194579954Y-57580858D01*
X194449432Y-57767265D01*
X194449431Y-57767267D01*
X194353261Y-57973502D01*
X194353258Y-57973511D01*
X194294366Y-58193302D01*
X194294364Y-58193313D01*
X194274532Y-58419998D01*
X194274532Y-58420001D01*
X194294364Y-58646686D01*
X194294366Y-58646697D01*
X194353258Y-58866488D01*
X194353261Y-58866497D01*
X194449431Y-59072732D01*
X194449432Y-59072734D01*
X194579954Y-59259141D01*
X194740858Y-59420045D01*
X194787693Y-59452839D01*
X194927266Y-59550568D01*
X194978316Y-59574373D01*
X194985275Y-59577618D01*
X195037714Y-59623791D01*
X195056866Y-59690984D01*
X195036650Y-59757865D01*
X194985275Y-59802382D01*
X194927267Y-59829431D01*
X194927265Y-59829432D01*
X194740858Y-59959954D01*
X194579954Y-60120858D01*
X194449432Y-60307265D01*
X194449431Y-60307267D01*
X194353261Y-60513502D01*
X194353258Y-60513511D01*
X194294366Y-60733302D01*
X194294364Y-60733313D01*
X194274532Y-60959998D01*
X194274532Y-60960001D01*
X194294364Y-61186686D01*
X194294366Y-61186697D01*
X194353258Y-61406488D01*
X194353261Y-61406497D01*
X194449431Y-61612732D01*
X194449432Y-61612734D01*
X194579954Y-61799141D01*
X194740858Y-61960045D01*
X194740861Y-61960047D01*
X194927266Y-62090568D01*
X194978316Y-62114373D01*
X194985275Y-62117618D01*
X195037714Y-62163791D01*
X195056866Y-62230984D01*
X195036650Y-62297865D01*
X194985275Y-62342381D01*
X194978316Y-62345627D01*
X194927267Y-62369431D01*
X194927265Y-62369432D01*
X194740858Y-62499954D01*
X194579954Y-62660858D01*
X194449432Y-62847265D01*
X194449431Y-62847267D01*
X194353261Y-63053502D01*
X194353258Y-63053511D01*
X194294366Y-63273302D01*
X194294364Y-63273313D01*
X194274532Y-63499998D01*
X194274532Y-63500001D01*
X194294364Y-63726686D01*
X194294366Y-63726697D01*
X194353258Y-63946488D01*
X194353261Y-63946497D01*
X194449431Y-64152732D01*
X194449432Y-64152734D01*
X194579954Y-64339141D01*
X194740858Y-64500045D01*
X194787693Y-64532839D01*
X194927266Y-64630568D01*
X194985275Y-64657618D01*
X195037714Y-64703791D01*
X195056866Y-64770984D01*
X195036650Y-64837865D01*
X194985275Y-64882382D01*
X194927267Y-64909431D01*
X194927265Y-64909432D01*
X194740858Y-65039954D01*
X194579954Y-65200858D01*
X194449432Y-65387265D01*
X194449431Y-65387267D01*
X194353261Y-65593502D01*
X194353258Y-65593511D01*
X194294366Y-65813302D01*
X194294364Y-65813313D01*
X194274532Y-66039998D01*
X194274532Y-66040001D01*
X194294364Y-66266686D01*
X194294366Y-66266697D01*
X194353258Y-66486488D01*
X194353261Y-66486497D01*
X194449431Y-66692732D01*
X194449432Y-66692734D01*
X194579954Y-66879141D01*
X194740858Y-67040045D01*
X194787693Y-67072839D01*
X194927266Y-67170568D01*
X194978316Y-67194373D01*
X194985275Y-67197618D01*
X195037714Y-67243791D01*
X195056866Y-67310984D01*
X195036650Y-67377865D01*
X194985275Y-67422382D01*
X194927267Y-67449431D01*
X194927265Y-67449432D01*
X194740858Y-67579954D01*
X194579954Y-67740858D01*
X194449432Y-67927265D01*
X194449431Y-67927267D01*
X194353261Y-68133502D01*
X194353258Y-68133511D01*
X194294366Y-68353302D01*
X194294364Y-68353313D01*
X194274532Y-68579998D01*
X194274532Y-68580001D01*
X194294364Y-68806686D01*
X194294366Y-68806697D01*
X194353258Y-69026488D01*
X194353261Y-69026497D01*
X194449431Y-69232732D01*
X194449432Y-69232734D01*
X194579954Y-69419141D01*
X194740858Y-69580045D01*
X194740861Y-69580047D01*
X194927266Y-69710568D01*
X194978316Y-69734373D01*
X194985275Y-69737618D01*
X195037714Y-69783791D01*
X195056866Y-69850984D01*
X195036650Y-69917865D01*
X194985275Y-69962382D01*
X194927267Y-69989431D01*
X194927265Y-69989432D01*
X194740858Y-70119954D01*
X194579954Y-70280858D01*
X194449432Y-70467265D01*
X194449431Y-70467267D01*
X194353261Y-70673502D01*
X194353258Y-70673511D01*
X194294366Y-70893302D01*
X194294364Y-70893313D01*
X194274532Y-71119998D01*
X194274532Y-71120001D01*
X194294364Y-71346686D01*
X194294366Y-71346697D01*
X194353258Y-71566488D01*
X194353261Y-71566497D01*
X194449431Y-71772732D01*
X194449432Y-71772734D01*
X194579954Y-71959141D01*
X194740858Y-72120045D01*
X194764473Y-72136580D01*
X194927266Y-72250568D01*
X194969620Y-72270318D01*
X194985275Y-72277618D01*
X195037714Y-72323791D01*
X195056866Y-72390984D01*
X195036650Y-72457865D01*
X194985275Y-72502381D01*
X194968272Y-72510310D01*
X194927267Y-72529431D01*
X194927265Y-72529432D01*
X194740858Y-72659954D01*
X194579954Y-72820858D01*
X194449432Y-73007265D01*
X194449431Y-73007267D01*
X194353261Y-73213502D01*
X194353258Y-73213511D01*
X194294366Y-73433302D01*
X194294364Y-73433313D01*
X194274532Y-73659998D01*
X194274532Y-73660001D01*
X194294364Y-73886686D01*
X194294366Y-73886697D01*
X194353258Y-74106488D01*
X194353261Y-74106497D01*
X194449431Y-74312732D01*
X194449432Y-74312734D01*
X194579954Y-74499141D01*
X194740858Y-74660045D01*
X194787693Y-74692839D01*
X194927266Y-74790568D01*
X194978316Y-74814373D01*
X194985275Y-74817618D01*
X195037714Y-74863791D01*
X195056866Y-74930984D01*
X195036650Y-74997865D01*
X194985275Y-75042382D01*
X194927267Y-75069431D01*
X194927265Y-75069432D01*
X194740858Y-75199954D01*
X194579954Y-75360858D01*
X194449432Y-75547265D01*
X194449431Y-75547267D01*
X194353261Y-75753502D01*
X194353258Y-75753511D01*
X194294366Y-75973302D01*
X194294364Y-75973313D01*
X194274532Y-76199998D01*
X194274532Y-76200001D01*
X194294364Y-76426686D01*
X194294366Y-76426697D01*
X194353258Y-76646488D01*
X194353261Y-76646497D01*
X194449431Y-76852732D01*
X194449432Y-76852734D01*
X194579954Y-77039141D01*
X194740858Y-77200045D01*
X194740861Y-77200047D01*
X194927266Y-77330568D01*
X194978316Y-77354373D01*
X194985275Y-77357618D01*
X195037714Y-77403791D01*
X195056866Y-77470984D01*
X195036650Y-77537865D01*
X194985275Y-77582382D01*
X194927267Y-77609431D01*
X194927265Y-77609432D01*
X194740858Y-77739954D01*
X194579954Y-77900858D01*
X194449432Y-78087265D01*
X194449431Y-78087267D01*
X194353261Y-78293502D01*
X194353258Y-78293511D01*
X194294366Y-78513302D01*
X194294364Y-78513313D01*
X194274532Y-78739998D01*
X194274532Y-78740001D01*
X194294364Y-78966686D01*
X194294366Y-78966697D01*
X194353258Y-79186488D01*
X194353261Y-79186497D01*
X194449431Y-79392732D01*
X194449432Y-79392734D01*
X194579954Y-79579141D01*
X194740858Y-79740045D01*
X194787693Y-79772839D01*
X194927266Y-79870568D01*
X194992781Y-79901118D01*
X195045220Y-79947290D01*
X195064372Y-80014484D01*
X195044156Y-80081365D01*
X194990991Y-80126700D01*
X194940376Y-80137500D01*
X188305743Y-80137500D01*
X188290122Y-80135775D01*
X188290095Y-80136061D01*
X188282333Y-80135326D01*
X188213172Y-80137500D01*
X188183649Y-80137500D01*
X188176778Y-80138367D01*
X188170959Y-80138825D01*
X188124374Y-80140289D01*
X188124368Y-80140290D01*
X188105126Y-80145880D01*
X188086087Y-80149823D01*
X188066217Y-80152334D01*
X188066203Y-80152337D01*
X188022883Y-80169488D01*
X188017358Y-80171380D01*
X187972613Y-80184380D01*
X187972610Y-80184381D01*
X187955366Y-80194579D01*
X187937905Y-80203133D01*
X187919274Y-80210510D01*
X187919262Y-80210517D01*
X187881570Y-80237902D01*
X187876687Y-80241109D01*
X187836580Y-80264829D01*
X187822414Y-80278995D01*
X187807624Y-80291627D01*
X187791414Y-80303404D01*
X187791411Y-80303407D01*
X187761710Y-80339309D01*
X187757777Y-80343631D01*
X185772227Y-82329181D01*
X185710904Y-82362666D01*
X185684546Y-82365500D01*
X185155453Y-82365500D01*
X185088414Y-82345815D01*
X185067772Y-82329181D01*
X184895803Y-82157212D01*
X184885980Y-82144950D01*
X184885759Y-82145134D01*
X184880786Y-82139123D01*
X184830364Y-82091773D01*
X184819919Y-82081328D01*
X184809475Y-82070883D01*
X184803986Y-82066625D01*
X184799561Y-82062847D01*
X184765582Y-82030938D01*
X184765580Y-82030936D01*
X184765577Y-82030935D01*
X184748029Y-82021288D01*
X184731763Y-82010604D01*
X184715936Y-81998327D01*
X184715935Y-81998326D01*
X184715933Y-81998325D01*
X184673168Y-81979818D01*
X184667922Y-81977248D01*
X184627093Y-81954803D01*
X184627092Y-81954802D01*
X184607693Y-81949822D01*
X184589281Y-81943518D01*
X184570898Y-81935562D01*
X184570892Y-81935560D01*
X184524874Y-81928272D01*
X184519152Y-81927087D01*
X184474021Y-81915500D01*
X184474019Y-81915500D01*
X184453984Y-81915500D01*
X184434586Y-81913973D01*
X184427162Y-81912797D01*
X184414805Y-81910840D01*
X184414804Y-81910840D01*
X184368416Y-81915225D01*
X184362578Y-81915500D01*
X182673453Y-81915500D01*
X182606414Y-81895815D01*
X182585772Y-81879181D01*
X180834539Y-80127948D01*
X180801054Y-80066625D01*
X180806038Y-79996933D01*
X180847910Y-79941000D01*
X180869808Y-79927889D01*
X180992734Y-79870568D01*
X181179139Y-79740047D01*
X181340047Y-79579139D01*
X181470568Y-79392734D01*
X181566739Y-79186496D01*
X181625635Y-78966692D01*
X181645468Y-78740000D01*
X181625635Y-78513308D01*
X181566739Y-78293504D01*
X181470568Y-78087266D01*
X181340047Y-77900861D01*
X181340045Y-77900858D01*
X181179141Y-77739954D01*
X180992734Y-77609432D01*
X180992728Y-77609429D01*
X180934725Y-77582382D01*
X180882285Y-77536210D01*
X180863133Y-77469017D01*
X180883348Y-77402135D01*
X180934725Y-77357618D01*
X180941684Y-77354373D01*
X180992734Y-77330568D01*
X181179139Y-77200047D01*
X181340047Y-77039139D01*
X181470568Y-76852734D01*
X181566739Y-76646496D01*
X181625635Y-76426692D01*
X181645468Y-76200000D01*
X181625635Y-75973308D01*
X181566739Y-75753504D01*
X181470568Y-75547266D01*
X181340047Y-75360861D01*
X181340045Y-75360858D01*
X181179141Y-75199954D01*
X180992734Y-75069432D01*
X180992728Y-75069429D01*
X180934725Y-75042382D01*
X180882285Y-74996210D01*
X180863133Y-74929017D01*
X180883348Y-74862135D01*
X180934725Y-74817618D01*
X180941684Y-74814373D01*
X180992734Y-74790568D01*
X181179139Y-74660047D01*
X181340047Y-74499139D01*
X181470568Y-74312734D01*
X181566739Y-74106496D01*
X181625635Y-73886692D01*
X181645468Y-73660000D01*
X181625635Y-73433308D01*
X181566739Y-73213504D01*
X181470568Y-73007266D01*
X181351934Y-72837837D01*
X181340045Y-72820858D01*
X181179141Y-72659954D01*
X180992734Y-72529432D01*
X180992728Y-72529429D01*
X180964362Y-72516202D01*
X180934724Y-72502381D01*
X180882285Y-72456210D01*
X180863133Y-72389017D01*
X180883348Y-72322135D01*
X180934725Y-72277618D01*
X180992734Y-72250568D01*
X181179139Y-72120047D01*
X181340047Y-71959139D01*
X181470568Y-71772734D01*
X181566739Y-71566496D01*
X181625635Y-71346692D01*
X181645468Y-71120000D01*
X181645030Y-71114999D01*
X181639801Y-71055230D01*
X181625635Y-70893308D01*
X181566739Y-70673504D01*
X181470568Y-70467266D01*
X181340047Y-70280861D01*
X181340045Y-70280858D01*
X181179141Y-70119954D01*
X180992734Y-69989432D01*
X180992728Y-69989429D01*
X180934725Y-69962382D01*
X180882285Y-69916210D01*
X180863133Y-69849017D01*
X180883348Y-69782135D01*
X180934725Y-69737618D01*
X180941684Y-69734373D01*
X180992734Y-69710568D01*
X181179139Y-69580047D01*
X181340047Y-69419139D01*
X181470568Y-69232734D01*
X181566739Y-69026496D01*
X181625635Y-68806692D01*
X181645468Y-68580000D01*
X181625635Y-68353308D01*
X181566739Y-68133504D01*
X181470568Y-67927266D01*
X181340047Y-67740861D01*
X181340045Y-67740858D01*
X181179141Y-67579954D01*
X180992734Y-67449432D01*
X180992728Y-67449429D01*
X180934725Y-67422382D01*
X180882285Y-67376210D01*
X180863133Y-67309017D01*
X180883348Y-67242135D01*
X180934725Y-67197618D01*
X180941684Y-67194373D01*
X180992734Y-67170568D01*
X181179139Y-67040047D01*
X181340047Y-66879139D01*
X181470568Y-66692734D01*
X181566739Y-66486496D01*
X181625635Y-66266692D01*
X181645468Y-66040000D01*
X181625635Y-65813308D01*
X181566739Y-65593504D01*
X181470568Y-65387266D01*
X181351934Y-65217837D01*
X181340045Y-65200858D01*
X181179141Y-65039954D01*
X180992734Y-64909432D01*
X180992728Y-64909429D01*
X180934725Y-64882382D01*
X180882285Y-64836210D01*
X180863133Y-64769017D01*
X180883348Y-64702135D01*
X180934725Y-64657618D01*
X180992734Y-64630568D01*
X181179139Y-64500047D01*
X181340047Y-64339139D01*
X181470568Y-64152734D01*
X181566739Y-63946496D01*
X181625635Y-63726692D01*
X181645468Y-63500000D01*
X181625635Y-63273308D01*
X181566739Y-63053504D01*
X181470568Y-62847266D01*
X181340047Y-62660861D01*
X181340045Y-62660858D01*
X181179141Y-62499954D01*
X180992734Y-62369432D01*
X180992728Y-62369429D01*
X180941684Y-62345627D01*
X180934724Y-62342381D01*
X180882285Y-62296210D01*
X180863133Y-62229017D01*
X180883348Y-62162135D01*
X180934725Y-62117618D01*
X180941684Y-62114373D01*
X180992734Y-62090568D01*
X181179139Y-61960047D01*
X181340047Y-61799139D01*
X181470568Y-61612734D01*
X181566739Y-61406496D01*
X181625635Y-61186692D01*
X181645468Y-60960000D01*
X181625635Y-60733308D01*
X181566739Y-60513504D01*
X181470568Y-60307266D01*
X181340047Y-60120861D01*
X181340045Y-60120858D01*
X181179141Y-59959954D01*
X181066024Y-59880750D01*
X180992734Y-59829432D01*
X180934132Y-59802105D01*
X180881694Y-59755933D01*
X180862543Y-59688739D01*
X180882759Y-59621858D01*
X180934135Y-59577341D01*
X180992482Y-59550133D01*
X181065472Y-59499025D01*
X180511568Y-58945121D01*
X180628458Y-58894349D01*
X180745739Y-58798934D01*
X180832928Y-58675415D01*
X180863354Y-58589801D01*
X181419025Y-59145472D01*
X181470136Y-59072478D01*
X181566264Y-58866331D01*
X181566269Y-58866317D01*
X181625139Y-58646610D01*
X181625141Y-58646599D01*
X181644966Y-58420002D01*
X181644966Y-58419997D01*
X181625141Y-58193400D01*
X181625139Y-58193389D01*
X181566269Y-57973682D01*
X181566265Y-57973673D01*
X181470133Y-57767516D01*
X181470131Y-57767512D01*
X181419026Y-57694526D01*
X181419025Y-57694526D01*
X180865929Y-58247622D01*
X180863116Y-58234085D01*
X180793558Y-58099844D01*
X180690362Y-57989348D01*
X180561181Y-57910791D01*
X180509996Y-57896449D01*
X181065472Y-57340974D01*
X181065471Y-57340973D01*
X180992483Y-57289866D01*
X180992481Y-57289865D01*
X180933543Y-57262382D01*
X180881104Y-57216210D01*
X180861952Y-57149016D01*
X180882168Y-57082135D01*
X180933544Y-57037618D01*
X180992478Y-57010136D01*
X181065472Y-56959025D01*
X180511568Y-56405121D01*
X180628458Y-56354349D01*
X180745739Y-56258934D01*
X180832928Y-56135415D01*
X180863354Y-56049801D01*
X181419025Y-56605472D01*
X181470136Y-56532478D01*
X181566264Y-56326331D01*
X181566269Y-56326317D01*
X181625139Y-56106610D01*
X181625141Y-56106599D01*
X181644966Y-55880002D01*
X181644966Y-55879997D01*
X181625141Y-55653400D01*
X181625139Y-55653389D01*
X181566269Y-55433682D01*
X181566265Y-55433673D01*
X181470133Y-55227516D01*
X181470131Y-55227512D01*
X181419026Y-55154526D01*
X181419025Y-55154526D01*
X180865929Y-55707622D01*
X180863116Y-55694085D01*
X180793558Y-55559844D01*
X180690362Y-55449348D01*
X180561181Y-55370791D01*
X180509996Y-55356449D01*
X181065472Y-54800974D01*
X181065471Y-54800973D01*
X180992483Y-54749866D01*
X180992481Y-54749865D01*
X180934133Y-54722657D01*
X180881694Y-54676484D01*
X180862542Y-54609291D01*
X180882758Y-54542410D01*
X180934129Y-54497895D01*
X180992734Y-54470568D01*
X181179139Y-54340047D01*
X181340047Y-54179139D01*
X181470568Y-53992734D01*
X181566739Y-53786496D01*
X181625635Y-53566692D01*
X181645468Y-53340000D01*
X181625635Y-53113308D01*
X181566739Y-52893504D01*
X181470568Y-52687266D01*
X181340047Y-52500861D01*
X181340045Y-52500858D01*
X181179141Y-52339954D01*
X180992734Y-52209432D01*
X180992728Y-52209429D01*
X180941684Y-52185627D01*
X180934724Y-52182381D01*
X180882285Y-52136210D01*
X180863133Y-52069017D01*
X180883348Y-52002135D01*
X180934725Y-51957618D01*
X180992734Y-51930568D01*
X181179139Y-51800047D01*
X181340047Y-51639139D01*
X181470568Y-51452734D01*
X181566739Y-51246496D01*
X181625635Y-51026692D01*
X181645468Y-50800000D01*
X181625635Y-50573308D01*
X181566739Y-50353504D01*
X181470568Y-50147266D01*
X181340047Y-49960861D01*
X181340045Y-49960858D01*
X181179141Y-49799954D01*
X180992734Y-49669432D01*
X180992732Y-49669431D01*
X180786497Y-49573261D01*
X180786488Y-49573258D01*
X180610465Y-49526094D01*
X180588747Y-49520274D01*
X180529087Y-49483910D01*
X180498558Y-49421063D01*
X180506853Y-49351688D01*
X180551338Y-49297810D01*
X180617890Y-49276535D01*
X180620841Y-49276500D01*
X195299159Y-49276500D01*
X195366198Y-49296185D01*
G37*
%TD.AperFunction*%
%TA.AperFunction,Conductor*%
G36*
X199836085Y-49296185D02*
G01*
X199881840Y-49348989D01*
X199891784Y-49418147D01*
X199862759Y-49481703D01*
X199856727Y-49488181D01*
X199856452Y-49488455D01*
X199770206Y-49603664D01*
X199770202Y-49603671D01*
X199719908Y-49738517D01*
X199717437Y-49761505D01*
X199713501Y-49798123D01*
X199713500Y-49798135D01*
X199713500Y-51293870D01*
X199713501Y-51293876D01*
X199719908Y-51353483D01*
X199770202Y-51488328D01*
X199770206Y-51488335D01*
X199856452Y-51603544D01*
X199856455Y-51603547D01*
X199971664Y-51689793D01*
X199971671Y-51689797D01*
X200106517Y-51740091D01*
X200106516Y-51740091D01*
X200113444Y-51740835D01*
X200166127Y-51746500D01*
X200385048Y-51746499D01*
X200452086Y-51766183D01*
X200497841Y-51818987D01*
X200507785Y-51888145D01*
X200478760Y-51951701D01*
X200429842Y-51986125D01*
X200376607Y-52006748D01*
X200376595Y-52006754D01*
X200187439Y-52123874D01*
X200187437Y-52123876D01*
X200023020Y-52273761D01*
X199888943Y-52451308D01*
X199888938Y-52451316D01*
X199789775Y-52650461D01*
X199789769Y-52650476D01*
X199728885Y-52864462D01*
X199728884Y-52864464D01*
X199708357Y-53085999D01*
X199708357Y-53086000D01*
X199728884Y-53307535D01*
X199728885Y-53307537D01*
X199789769Y-53521523D01*
X199789775Y-53521538D01*
X199888938Y-53720683D01*
X199888943Y-53720691D01*
X200023020Y-53898238D01*
X200187437Y-54048123D01*
X200187439Y-54048125D01*
X200376595Y-54165245D01*
X200376596Y-54165245D01*
X200376599Y-54165247D01*
X200570524Y-54240374D01*
X200625924Y-54282946D01*
X200649515Y-54348713D01*
X200633804Y-54416793D01*
X200583780Y-54465572D01*
X200570533Y-54471622D01*
X200461054Y-54514035D01*
X200376601Y-54546752D01*
X200376595Y-54546754D01*
X200187439Y-54663874D01*
X200187437Y-54663876D01*
X200023020Y-54813761D01*
X199888943Y-54991308D01*
X199888938Y-54991316D01*
X199789775Y-55190461D01*
X199789769Y-55190476D01*
X199728885Y-55404462D01*
X199728884Y-55404464D01*
X199708357Y-55625999D01*
X199708357Y-55626000D01*
X199728884Y-55847535D01*
X199728885Y-55847537D01*
X199789769Y-56061523D01*
X199789775Y-56061538D01*
X199888938Y-56260683D01*
X199888943Y-56260691D01*
X200023020Y-56438238D01*
X200187437Y-56588123D01*
X200187439Y-56588125D01*
X200376595Y-56705245D01*
X200376596Y-56705245D01*
X200376599Y-56705247D01*
X200584060Y-56785618D01*
X200802757Y-56826500D01*
X200802759Y-56826500D01*
X201025240Y-56826500D01*
X201025243Y-56826500D01*
X201133427Y-56806276D01*
X201202940Y-56813307D01*
X201243891Y-56840482D01*
X201277180Y-56873770D01*
X201310666Y-56935093D01*
X201313500Y-56961453D01*
X201313500Y-57095500D01*
X201293815Y-57162539D01*
X201241011Y-57208294D01*
X201189500Y-57219500D01*
X200166129Y-57219500D01*
X200166123Y-57219501D01*
X200106516Y-57225908D01*
X199971671Y-57276202D01*
X199971664Y-57276206D01*
X199856455Y-57362452D01*
X199856452Y-57362455D01*
X199770206Y-57477664D01*
X199770202Y-57477671D01*
X199719908Y-57612517D01*
X199713501Y-57672116D01*
X199713500Y-57672135D01*
X199713500Y-59167870D01*
X199713501Y-59167876D01*
X199719908Y-59227483D01*
X199770202Y-59362328D01*
X199770206Y-59362335D01*
X199856452Y-59477544D01*
X199856455Y-59477547D01*
X199971664Y-59563793D01*
X199971671Y-59563797D01*
X200106517Y-59614091D01*
X200106516Y-59614091D01*
X200113444Y-59614835D01*
X200166127Y-59620500D01*
X200385048Y-59620499D01*
X200452086Y-59640183D01*
X200497841Y-59692987D01*
X200507785Y-59762145D01*
X200478760Y-59825701D01*
X200429842Y-59860125D01*
X200376607Y-59880748D01*
X200376595Y-59880754D01*
X200187439Y-59997874D01*
X200187437Y-59997876D01*
X200023020Y-60147761D01*
X199888943Y-60325308D01*
X199888938Y-60325316D01*
X199789775Y-60524461D01*
X199789769Y-60524476D01*
X199728885Y-60738462D01*
X199728884Y-60738464D01*
X199708357Y-60959999D01*
X199708357Y-60960000D01*
X199728884Y-61181535D01*
X199728885Y-61181537D01*
X199789769Y-61395523D01*
X199789775Y-61395538D01*
X199888938Y-61594683D01*
X199888943Y-61594691D01*
X200023020Y-61772238D01*
X200187437Y-61922123D01*
X200187439Y-61922125D01*
X200376595Y-62039245D01*
X200376596Y-62039245D01*
X200376599Y-62039247D01*
X200570524Y-62114374D01*
X200625924Y-62156946D01*
X200649515Y-62222713D01*
X200633804Y-62290793D01*
X200583780Y-62339572D01*
X200570533Y-62345622D01*
X200434038Y-62398501D01*
X200376601Y-62420752D01*
X200376595Y-62420754D01*
X200187439Y-62537874D01*
X200187437Y-62537876D01*
X200023020Y-62687761D01*
X199888943Y-62865308D01*
X199888938Y-62865316D01*
X199789775Y-63064461D01*
X199789769Y-63064476D01*
X199728885Y-63278462D01*
X199728884Y-63278464D01*
X199708357Y-63499999D01*
X199708357Y-63500000D01*
X199728884Y-63721535D01*
X199728885Y-63721537D01*
X199789769Y-63935523D01*
X199789775Y-63935538D01*
X199888938Y-64134683D01*
X199888943Y-64134691D01*
X200023020Y-64312238D01*
X200187437Y-64462123D01*
X200187439Y-64462125D01*
X200376595Y-64579245D01*
X200376607Y-64579251D01*
X200429841Y-64599873D01*
X200485244Y-64642445D01*
X200508835Y-64708211D01*
X200493125Y-64776292D01*
X200443101Y-64825072D01*
X200385050Y-64839500D01*
X200166130Y-64839500D01*
X200166123Y-64839501D01*
X200106516Y-64845908D01*
X199971671Y-64896202D01*
X199971664Y-64896206D01*
X199856455Y-64982452D01*
X199856452Y-64982455D01*
X199770206Y-65097664D01*
X199770202Y-65097671D01*
X199719908Y-65232517D01*
X199713501Y-65292116D01*
X199713500Y-65292135D01*
X199713500Y-66787870D01*
X199713501Y-66787876D01*
X199719908Y-66847483D01*
X199770202Y-66982328D01*
X199770206Y-66982335D01*
X199856452Y-67097544D01*
X199856455Y-67097547D01*
X199971664Y-67183793D01*
X199971671Y-67183797D01*
X200106517Y-67234091D01*
X200106516Y-67234091D01*
X200113444Y-67234835D01*
X200166127Y-67240500D01*
X200385048Y-67240499D01*
X200452086Y-67260183D01*
X200497841Y-67312987D01*
X200507785Y-67382145D01*
X200478760Y-67445701D01*
X200429842Y-67480125D01*
X200376607Y-67500748D01*
X200376595Y-67500754D01*
X200187439Y-67617874D01*
X200187437Y-67617876D01*
X200023020Y-67767761D01*
X199888943Y-67945308D01*
X199888938Y-67945316D01*
X199789775Y-68144461D01*
X199789769Y-68144476D01*
X199728885Y-68358462D01*
X199728884Y-68358464D01*
X199708357Y-68579999D01*
X199708357Y-68580000D01*
X199728884Y-68801535D01*
X199728885Y-68801537D01*
X199789769Y-69015523D01*
X199789775Y-69015538D01*
X199888938Y-69214683D01*
X199888943Y-69214691D01*
X200023020Y-69392238D01*
X200187437Y-69542123D01*
X200187439Y-69542125D01*
X200376595Y-69659245D01*
X200376596Y-69659245D01*
X200376599Y-69659247D01*
X200570524Y-69734374D01*
X200625924Y-69776946D01*
X200649515Y-69842713D01*
X200633804Y-69910793D01*
X200583780Y-69959572D01*
X200570533Y-69965622D01*
X200422488Y-70022975D01*
X200376601Y-70040752D01*
X200376595Y-70040754D01*
X200187439Y-70157874D01*
X200187437Y-70157876D01*
X200023020Y-70307761D01*
X199888943Y-70485308D01*
X199888938Y-70485316D01*
X199789775Y-70684461D01*
X199789769Y-70684476D01*
X199728885Y-70898462D01*
X199728884Y-70898464D01*
X199708357Y-71119999D01*
X199708357Y-71120000D01*
X199728884Y-71341535D01*
X199728885Y-71341537D01*
X199789769Y-71555523D01*
X199789775Y-71555538D01*
X199888938Y-71754683D01*
X199888943Y-71754691D01*
X200023020Y-71932238D01*
X200187437Y-72082123D01*
X200187439Y-72082125D01*
X200376595Y-72199245D01*
X200376607Y-72199251D01*
X200429841Y-72219873D01*
X200485244Y-72262445D01*
X200508835Y-72328211D01*
X200493125Y-72396292D01*
X200443101Y-72445072D01*
X200385050Y-72459500D01*
X200166130Y-72459500D01*
X200166123Y-72459501D01*
X200106516Y-72465908D01*
X199971671Y-72516202D01*
X199971664Y-72516206D01*
X199856455Y-72602452D01*
X199856452Y-72602455D01*
X199770206Y-72717664D01*
X199770202Y-72717671D01*
X199719908Y-72852517D01*
X199713501Y-72912116D01*
X199713500Y-72912135D01*
X199713500Y-74407870D01*
X199713501Y-74407876D01*
X199719908Y-74467483D01*
X199770202Y-74602328D01*
X199770206Y-74602335D01*
X199856452Y-74717544D01*
X199856455Y-74717547D01*
X199971664Y-74803793D01*
X199971671Y-74803797D01*
X200106517Y-74854091D01*
X200106516Y-74854091D01*
X200113444Y-74854835D01*
X200166127Y-74860500D01*
X200385048Y-74860499D01*
X200452086Y-74880183D01*
X200497841Y-74932987D01*
X200507785Y-75002145D01*
X200478760Y-75065701D01*
X200429842Y-75100125D01*
X200376607Y-75120748D01*
X200376595Y-75120754D01*
X200187439Y-75237874D01*
X200187437Y-75237876D01*
X200023020Y-75387761D01*
X199888943Y-75565308D01*
X199888938Y-75565316D01*
X199789775Y-75764461D01*
X199789769Y-75764476D01*
X199728885Y-75978462D01*
X199728884Y-75978464D01*
X199708357Y-76199999D01*
X199708357Y-76200000D01*
X199728884Y-76421535D01*
X199728885Y-76421537D01*
X199789769Y-76635523D01*
X199789775Y-76635538D01*
X199888938Y-76834683D01*
X199888943Y-76834691D01*
X200023020Y-77012238D01*
X200187437Y-77162123D01*
X200187439Y-77162125D01*
X200376595Y-77279245D01*
X200376596Y-77279245D01*
X200376599Y-77279247D01*
X200570524Y-77354374D01*
X200625924Y-77396946D01*
X200649515Y-77462713D01*
X200633804Y-77530793D01*
X200583780Y-77579572D01*
X200570533Y-77585622D01*
X200422488Y-77642975D01*
X200376601Y-77660752D01*
X200376595Y-77660754D01*
X200187439Y-77777874D01*
X200187437Y-77777876D01*
X200023020Y-77927761D01*
X199888943Y-78105308D01*
X199888938Y-78105316D01*
X199789775Y-78304461D01*
X199789769Y-78304476D01*
X199728885Y-78518462D01*
X199728884Y-78518464D01*
X199708357Y-78739999D01*
X199708357Y-78740000D01*
X199728885Y-78961536D01*
X199729315Y-78963837D01*
X199729201Y-78964955D01*
X199729414Y-78967245D01*
X199728966Y-78967286D01*
X199722283Y-79033352D01*
X199695107Y-79074301D01*
X198668228Y-80101181D01*
X198606905Y-80134666D01*
X198580547Y-80137500D01*
X196219624Y-80137500D01*
X196152585Y-80117815D01*
X196106830Y-80065011D01*
X196096886Y-79995853D01*
X196125911Y-79932297D01*
X196167217Y-79901118D01*
X196232734Y-79870568D01*
X196419139Y-79740047D01*
X196580047Y-79579139D01*
X196710568Y-79392734D01*
X196806739Y-79186496D01*
X196865635Y-78966692D01*
X196885468Y-78740000D01*
X196865635Y-78513308D01*
X196806739Y-78293504D01*
X196710568Y-78087266D01*
X196580047Y-77900861D01*
X196580045Y-77900858D01*
X196419141Y-77739954D01*
X196232734Y-77609432D01*
X196232728Y-77609429D01*
X196174725Y-77582382D01*
X196122285Y-77536210D01*
X196103133Y-77469017D01*
X196123348Y-77402135D01*
X196174725Y-77357618D01*
X196181684Y-77354373D01*
X196232734Y-77330568D01*
X196419139Y-77200047D01*
X196580047Y-77039139D01*
X196710568Y-76852734D01*
X196806739Y-76646496D01*
X196865635Y-76426692D01*
X196885468Y-76200000D01*
X196865635Y-75973308D01*
X196806739Y-75753504D01*
X196710568Y-75547266D01*
X196580047Y-75360861D01*
X196580045Y-75360858D01*
X196419141Y-75199954D01*
X196232734Y-75069432D01*
X196232728Y-75069429D01*
X196174725Y-75042382D01*
X196122285Y-74996210D01*
X196103133Y-74929017D01*
X196123348Y-74862135D01*
X196174725Y-74817618D01*
X196181684Y-74814373D01*
X196232734Y-74790568D01*
X196419139Y-74660047D01*
X196580047Y-74499139D01*
X196710568Y-74312734D01*
X196806739Y-74106496D01*
X196865635Y-73886692D01*
X196885468Y-73660000D01*
X196865635Y-73433308D01*
X196806739Y-73213504D01*
X196710568Y-73007266D01*
X196591934Y-72837837D01*
X196580045Y-72820858D01*
X196419141Y-72659954D01*
X196232734Y-72529432D01*
X196232728Y-72529429D01*
X196204362Y-72516202D01*
X196174724Y-72502381D01*
X196122285Y-72456210D01*
X196103133Y-72389017D01*
X196123348Y-72322135D01*
X196174725Y-72277618D01*
X196232734Y-72250568D01*
X196419139Y-72120047D01*
X196580047Y-71959139D01*
X196710568Y-71772734D01*
X196806739Y-71566496D01*
X196865635Y-71346692D01*
X196885468Y-71120000D01*
X196885030Y-71114999D01*
X196879801Y-71055230D01*
X196865635Y-70893308D01*
X196806739Y-70673504D01*
X196710568Y-70467266D01*
X196580047Y-70280861D01*
X196580045Y-70280858D01*
X196419141Y-70119954D01*
X196232734Y-69989432D01*
X196232728Y-69989429D01*
X196174725Y-69962382D01*
X196122285Y-69916210D01*
X196103133Y-69849017D01*
X196123348Y-69782135D01*
X196174725Y-69737618D01*
X196181684Y-69734373D01*
X196232734Y-69710568D01*
X196419139Y-69580047D01*
X196580047Y-69419139D01*
X196710568Y-69232734D01*
X196806739Y-69026496D01*
X196865635Y-68806692D01*
X196885468Y-68580000D01*
X196865635Y-68353308D01*
X196806739Y-68133504D01*
X196710568Y-67927266D01*
X196580047Y-67740861D01*
X196580045Y-67740858D01*
X196419141Y-67579954D01*
X196232734Y-67449432D01*
X196232728Y-67449429D01*
X196174725Y-67422382D01*
X196122285Y-67376210D01*
X196103133Y-67309017D01*
X196123348Y-67242135D01*
X196174725Y-67197618D01*
X196181684Y-67194373D01*
X196232734Y-67170568D01*
X196419139Y-67040047D01*
X196580047Y-66879139D01*
X196710568Y-66692734D01*
X196806739Y-66486496D01*
X196865635Y-66266692D01*
X196885468Y-66040000D01*
X196865635Y-65813308D01*
X196806739Y-65593504D01*
X196710568Y-65387266D01*
X196591934Y-65217837D01*
X196580045Y-65200858D01*
X196419141Y-65039954D01*
X196232734Y-64909432D01*
X196232728Y-64909429D01*
X196174725Y-64882382D01*
X196122285Y-64836210D01*
X196103133Y-64769017D01*
X196123348Y-64702135D01*
X196174725Y-64657618D01*
X196232734Y-64630568D01*
X196419139Y-64500047D01*
X196580047Y-64339139D01*
X196710568Y-64152734D01*
X196806739Y-63946496D01*
X196865635Y-63726692D01*
X196885468Y-63500000D01*
X196865635Y-63273308D01*
X196806739Y-63053504D01*
X196710568Y-62847266D01*
X196580047Y-62660861D01*
X196580045Y-62660858D01*
X196419141Y-62499954D01*
X196232734Y-62369432D01*
X196232728Y-62369429D01*
X196181684Y-62345627D01*
X196174724Y-62342381D01*
X196122285Y-62296210D01*
X196103133Y-62229017D01*
X196123348Y-62162135D01*
X196174725Y-62117618D01*
X196181684Y-62114373D01*
X196232734Y-62090568D01*
X196419139Y-61960047D01*
X196580047Y-61799139D01*
X196710568Y-61612734D01*
X196806739Y-61406496D01*
X196865635Y-61186692D01*
X196885468Y-60960000D01*
X196865635Y-60733308D01*
X196806739Y-60513504D01*
X196710568Y-60307266D01*
X196580047Y-60120861D01*
X196580045Y-60120858D01*
X196419141Y-59959954D01*
X196232734Y-59829432D01*
X196232728Y-59829429D01*
X196174725Y-59802382D01*
X196122285Y-59756210D01*
X196103133Y-59689017D01*
X196123348Y-59622135D01*
X196174725Y-59577618D01*
X196181684Y-59574373D01*
X196232734Y-59550568D01*
X196419139Y-59420047D01*
X196580047Y-59259139D01*
X196710568Y-59072734D01*
X196806739Y-58866496D01*
X196865635Y-58646692D01*
X196885468Y-58420000D01*
X196865635Y-58193308D01*
X196806739Y-57973504D01*
X196710568Y-57767266D01*
X196591934Y-57597837D01*
X196580045Y-57580858D01*
X196419141Y-57419954D01*
X196232734Y-57289432D01*
X196232728Y-57289429D01*
X196174725Y-57262382D01*
X196122285Y-57216210D01*
X196103133Y-57149017D01*
X196123348Y-57082135D01*
X196174725Y-57037618D01*
X196232734Y-57010568D01*
X196419139Y-56880047D01*
X196580047Y-56719139D01*
X196710568Y-56532734D01*
X196806739Y-56326496D01*
X196865635Y-56106692D01*
X196885468Y-55880000D01*
X196865635Y-55653308D01*
X196806739Y-55433504D01*
X196710568Y-55227266D01*
X196580047Y-55040861D01*
X196580045Y-55040858D01*
X196419141Y-54879954D01*
X196233358Y-54749869D01*
X196232734Y-54749432D01*
X196174132Y-54722105D01*
X196121694Y-54675933D01*
X196102543Y-54608739D01*
X196122759Y-54541858D01*
X196174135Y-54497341D01*
X196232482Y-54470133D01*
X196305472Y-54419025D01*
X195751568Y-53865121D01*
X195868458Y-53814349D01*
X195985739Y-53718934D01*
X196072928Y-53595415D01*
X196103354Y-53509801D01*
X196659025Y-54065472D01*
X196710136Y-53992478D01*
X196806264Y-53786331D01*
X196806269Y-53786317D01*
X196865139Y-53566610D01*
X196865141Y-53566599D01*
X196884966Y-53340002D01*
X196884966Y-53339997D01*
X196865141Y-53113400D01*
X196865139Y-53113389D01*
X196806269Y-52893682D01*
X196806265Y-52893673D01*
X196710133Y-52687516D01*
X196710131Y-52687512D01*
X196659026Y-52614526D01*
X196659025Y-52614526D01*
X196105929Y-53167622D01*
X196103116Y-53154085D01*
X196033558Y-53019844D01*
X195930362Y-52909348D01*
X195801181Y-52830791D01*
X195749996Y-52816449D01*
X196305472Y-52260974D01*
X196305471Y-52260973D01*
X196232483Y-52209866D01*
X196232481Y-52209865D01*
X196174133Y-52182657D01*
X196121694Y-52136484D01*
X196102542Y-52069291D01*
X196122758Y-52002410D01*
X196174129Y-51957895D01*
X196232734Y-51930568D01*
X196419139Y-51800047D01*
X196580047Y-51639139D01*
X196710568Y-51452734D01*
X196806739Y-51246496D01*
X196865635Y-51026692D01*
X196885468Y-50800000D01*
X196865635Y-50573308D01*
X196806739Y-50353504D01*
X196710568Y-50147266D01*
X196580047Y-49960861D01*
X196580045Y-49960858D01*
X196419141Y-49799954D01*
X196232734Y-49669432D01*
X196232732Y-49669431D01*
X196026497Y-49573261D01*
X196026488Y-49573258D01*
X195850465Y-49526094D01*
X195828747Y-49520274D01*
X195769087Y-49483910D01*
X195738558Y-49421063D01*
X195746853Y-49351688D01*
X195791338Y-49297810D01*
X195857890Y-49276535D01*
X195860841Y-49276500D01*
X199769046Y-49276500D01*
X199836085Y-49296185D01*
G37*
%TD.AperFunction*%
%TD*%
M02*
