%TF.GenerationSoftware,KiCad,Pcbnew,7.0.9-7.0.9~ubuntu22.04.1*%
%TF.CreationDate,2024-01-06T16:43:22-08:00*%
%TF.ProjectId,ir-buddy,69722d62-7564-4647-992e-6b696361645f,rev?*%
%TF.SameCoordinates,Original*%
%TF.FileFunction,Legend,Top*%
%TF.FilePolarity,Positive*%
%FSLAX46Y46*%
G04 Gerber Fmt 4.6, Leading zero omitted, Abs format (unit mm)*
G04 Created by KiCad (PCBNEW 7.0.9-7.0.9~ubuntu22.04.1) date 2024-01-06 16:43:22*
%MOMM*%
%LPD*%
G01*
G04 APERTURE LIST*
%ADD10C,0.150000*%
%ADD11C,0.120000*%
%ADD12C,0.100000*%
G04 APERTURE END LIST*
D10*
X212315636Y-55940390D02*
X212220398Y-55892771D01*
X212220398Y-55892771D02*
X212172779Y-55845152D01*
X212172779Y-55845152D02*
X212125160Y-55749914D01*
X212125160Y-55749914D02*
X212125160Y-55702295D01*
X212125160Y-55702295D02*
X212172779Y-55607057D01*
X212172779Y-55607057D02*
X212220398Y-55559438D01*
X212220398Y-55559438D02*
X212315636Y-55511819D01*
X212315636Y-55511819D02*
X212506112Y-55511819D01*
X212506112Y-55511819D02*
X212601350Y-55559438D01*
X212601350Y-55559438D02*
X212648969Y-55607057D01*
X212648969Y-55607057D02*
X212696588Y-55702295D01*
X212696588Y-55702295D02*
X212696588Y-55749914D01*
X212696588Y-55749914D02*
X212648969Y-55845152D01*
X212648969Y-55845152D02*
X212601350Y-55892771D01*
X212601350Y-55892771D02*
X212506112Y-55940390D01*
X212506112Y-55940390D02*
X212315636Y-55940390D01*
X212315636Y-55940390D02*
X212220398Y-55988009D01*
X212220398Y-55988009D02*
X212172779Y-56035628D01*
X212172779Y-56035628D02*
X212125160Y-56130866D01*
X212125160Y-56130866D02*
X212125160Y-56321342D01*
X212125160Y-56321342D02*
X212172779Y-56416580D01*
X212172779Y-56416580D02*
X212220398Y-56464200D01*
X212220398Y-56464200D02*
X212315636Y-56511819D01*
X212315636Y-56511819D02*
X212506112Y-56511819D01*
X212506112Y-56511819D02*
X212601350Y-56464200D01*
X212601350Y-56464200D02*
X212648969Y-56416580D01*
X212648969Y-56416580D02*
X212696588Y-56321342D01*
X212696588Y-56321342D02*
X212696588Y-56130866D01*
X212696588Y-56130866D02*
X212648969Y-56035628D01*
X212648969Y-56035628D02*
X212601350Y-55988009D01*
X212601350Y-55988009D02*
X212506112Y-55940390D01*
X212331541Y-65671819D02*
X212998207Y-65671819D01*
X212998207Y-65671819D02*
X212569636Y-66671819D01*
X212601350Y-75577819D02*
X212410874Y-75577819D01*
X212410874Y-75577819D02*
X212315636Y-75625438D01*
X212315636Y-75625438D02*
X212268017Y-75673057D01*
X212268017Y-75673057D02*
X212172779Y-75815914D01*
X212172779Y-75815914D02*
X212125160Y-76006390D01*
X212125160Y-76006390D02*
X212125160Y-76387342D01*
X212125160Y-76387342D02*
X212172779Y-76482580D01*
X212172779Y-76482580D02*
X212220398Y-76530200D01*
X212220398Y-76530200D02*
X212315636Y-76577819D01*
X212315636Y-76577819D02*
X212506112Y-76577819D01*
X212506112Y-76577819D02*
X212601350Y-76530200D01*
X212601350Y-76530200D02*
X212648969Y-76482580D01*
X212648969Y-76482580D02*
X212696588Y-76387342D01*
X212696588Y-76387342D02*
X212696588Y-76149247D01*
X212696588Y-76149247D02*
X212648969Y-76054009D01*
X212648969Y-76054009D02*
X212601350Y-76006390D01*
X212601350Y-76006390D02*
X212506112Y-75958771D01*
X212506112Y-75958771D02*
X212315636Y-75958771D01*
X212315636Y-75958771D02*
X212220398Y-76006390D01*
X212220398Y-76006390D02*
X212172779Y-76054009D01*
X212172779Y-76054009D02*
X212125160Y-76149247D01*
X207822969Y-84975819D02*
X207346779Y-84975819D01*
X207346779Y-84975819D02*
X207299160Y-85452009D01*
X207299160Y-85452009D02*
X207346779Y-85404390D01*
X207346779Y-85404390D02*
X207442017Y-85356771D01*
X207442017Y-85356771D02*
X207680112Y-85356771D01*
X207680112Y-85356771D02*
X207775350Y-85404390D01*
X207775350Y-85404390D02*
X207822969Y-85452009D01*
X207822969Y-85452009D02*
X207870588Y-85547247D01*
X207870588Y-85547247D02*
X207870588Y-85785342D01*
X207870588Y-85785342D02*
X207822969Y-85880580D01*
X207822969Y-85880580D02*
X207775350Y-85928200D01*
X207775350Y-85928200D02*
X207680112Y-85975819D01*
X207680112Y-85975819D02*
X207442017Y-85975819D01*
X207442017Y-85975819D02*
X207346779Y-85928200D01*
X207346779Y-85928200D02*
X207299160Y-85880580D01*
X168659350Y-85309152D02*
X168659350Y-85975819D01*
X168421255Y-84928200D02*
X168183160Y-85642485D01*
X168183160Y-85642485D02*
X168802207Y-85642485D01*
X163055541Y-75577819D02*
X163674588Y-75577819D01*
X163674588Y-75577819D02*
X163341255Y-75958771D01*
X163341255Y-75958771D02*
X163484112Y-75958771D01*
X163484112Y-75958771D02*
X163579350Y-76006390D01*
X163579350Y-76006390D02*
X163626969Y-76054009D01*
X163626969Y-76054009D02*
X163674588Y-76149247D01*
X163674588Y-76149247D02*
X163674588Y-76387342D01*
X163674588Y-76387342D02*
X163626969Y-76482580D01*
X163626969Y-76482580D02*
X163579350Y-76530200D01*
X163579350Y-76530200D02*
X163484112Y-76577819D01*
X163484112Y-76577819D02*
X163198398Y-76577819D01*
X163198398Y-76577819D02*
X163103160Y-76530200D01*
X163103160Y-76530200D02*
X163055541Y-76482580D01*
X163103160Y-65767057D02*
X163150779Y-65719438D01*
X163150779Y-65719438D02*
X163246017Y-65671819D01*
X163246017Y-65671819D02*
X163484112Y-65671819D01*
X163484112Y-65671819D02*
X163579350Y-65719438D01*
X163579350Y-65719438D02*
X163626969Y-65767057D01*
X163626969Y-65767057D02*
X163674588Y-65862295D01*
X163674588Y-65862295D02*
X163674588Y-65957533D01*
X163674588Y-65957533D02*
X163626969Y-66100390D01*
X163626969Y-66100390D02*
X163055541Y-66671819D01*
X163055541Y-66671819D02*
X163674588Y-66671819D01*
X163674588Y-56511819D02*
X163103160Y-56511819D01*
X163388874Y-56511819D02*
X163388874Y-55511819D01*
X163388874Y-55511819D02*
X163293636Y-55654676D01*
X163293636Y-55654676D02*
X163198398Y-55749914D01*
X163198398Y-55749914D02*
X163103160Y-55797533D01*
X185769524Y-47754819D02*
X185769524Y-48564342D01*
X185769524Y-48564342D02*
X185817143Y-48659580D01*
X185817143Y-48659580D02*
X185864762Y-48707200D01*
X185864762Y-48707200D02*
X185960000Y-48754819D01*
X185960000Y-48754819D02*
X186150476Y-48754819D01*
X186150476Y-48754819D02*
X186245714Y-48707200D01*
X186245714Y-48707200D02*
X186293333Y-48659580D01*
X186293333Y-48659580D02*
X186340952Y-48564342D01*
X186340952Y-48564342D02*
X186340952Y-47754819D01*
X187340952Y-48754819D02*
X186769524Y-48754819D01*
X187055238Y-48754819D02*
X187055238Y-47754819D01*
X187055238Y-47754819D02*
X186960000Y-47897676D01*
X186960000Y-47897676D02*
X186864762Y-47992914D01*
X186864762Y-47992914D02*
X186769524Y-48040533D01*
X187960000Y-47754819D02*
X188055238Y-47754819D01*
X188055238Y-47754819D02*
X188150476Y-47802438D01*
X188150476Y-47802438D02*
X188198095Y-47850057D01*
X188198095Y-47850057D02*
X188245714Y-47945295D01*
X188245714Y-47945295D02*
X188293333Y-48135771D01*
X188293333Y-48135771D02*
X188293333Y-48373866D01*
X188293333Y-48373866D02*
X188245714Y-48564342D01*
X188245714Y-48564342D02*
X188198095Y-48659580D01*
X188198095Y-48659580D02*
X188150476Y-48707200D01*
X188150476Y-48707200D02*
X188055238Y-48754819D01*
X188055238Y-48754819D02*
X187960000Y-48754819D01*
X187960000Y-48754819D02*
X187864762Y-48707200D01*
X187864762Y-48707200D02*
X187817143Y-48659580D01*
X187817143Y-48659580D02*
X187769524Y-48564342D01*
X187769524Y-48564342D02*
X187721905Y-48373866D01*
X187721905Y-48373866D02*
X187721905Y-48135771D01*
X187721905Y-48135771D02*
X187769524Y-47945295D01*
X187769524Y-47945295D02*
X187817143Y-47850057D01*
X187817143Y-47850057D02*
X187864762Y-47802438D01*
X187864762Y-47802438D02*
X187960000Y-47754819D01*
X188912381Y-47754819D02*
X189007619Y-47754819D01*
X189007619Y-47754819D02*
X189102857Y-47802438D01*
X189102857Y-47802438D02*
X189150476Y-47850057D01*
X189150476Y-47850057D02*
X189198095Y-47945295D01*
X189198095Y-47945295D02*
X189245714Y-48135771D01*
X189245714Y-48135771D02*
X189245714Y-48373866D01*
X189245714Y-48373866D02*
X189198095Y-48564342D01*
X189198095Y-48564342D02*
X189150476Y-48659580D01*
X189150476Y-48659580D02*
X189102857Y-48707200D01*
X189102857Y-48707200D02*
X189007619Y-48754819D01*
X189007619Y-48754819D02*
X188912381Y-48754819D01*
X188912381Y-48754819D02*
X188817143Y-48707200D01*
X188817143Y-48707200D02*
X188769524Y-48659580D01*
X188769524Y-48659580D02*
X188721905Y-48564342D01*
X188721905Y-48564342D02*
X188674286Y-48373866D01*
X188674286Y-48373866D02*
X188674286Y-48135771D01*
X188674286Y-48135771D02*
X188721905Y-47945295D01*
X188721905Y-47945295D02*
X188769524Y-47850057D01*
X188769524Y-47850057D02*
X188817143Y-47802438D01*
X188817143Y-47802438D02*
X188912381Y-47754819D01*
X190198095Y-48754819D02*
X189626667Y-48754819D01*
X189912381Y-48754819D02*
X189912381Y-47754819D01*
X189912381Y-47754819D02*
X189817143Y-47897676D01*
X189817143Y-47897676D02*
X189721905Y-47992914D01*
X189721905Y-47992914D02*
X189626667Y-48040533D01*
D11*
%TO.C,Q1009*%
X199064000Y-51286000D02*
X199064000Y-54886000D01*
X203514000Y-53086000D02*
G75*
G03*
X199075522Y-51247522I-2600000J0D01*
G01*
X199075522Y-54924478D02*
G75*
G03*
X203514000Y-53086000I1838478J1838478D01*
G01*
%TO.C,Q1008*%
X199064000Y-59160000D02*
X199064000Y-62760000D01*
X203514000Y-60960000D02*
G75*
G03*
X199075522Y-59121522I-2600000J0D01*
G01*
X199075522Y-62798478D02*
G75*
G03*
X203514000Y-60960000I1838478J1838478D01*
G01*
%TO.C,Q1007*%
X199064000Y-66780000D02*
X199064000Y-70380000D01*
X203514000Y-68580000D02*
G75*
G03*
X199075522Y-66741522I-2600000J0D01*
G01*
X199075522Y-70418478D02*
G75*
G03*
X203514000Y-68580000I1838478J1838478D01*
G01*
%TO.C,Q1006*%
X199064000Y-74400000D02*
X199064000Y-78000000D01*
X203514000Y-76200000D02*
G75*
G03*
X199075522Y-74361522I-2600000J0D01*
G01*
X199075522Y-78038478D02*
G75*
G03*
X203514000Y-76200000I1838478J1838478D01*
G01*
%TO.C,Q1005*%
X176856000Y-55140000D02*
X176856000Y-51540000D01*
X172406000Y-53340000D02*
G75*
G03*
X176844478Y-55178478I2600000J0D01*
G01*
X176844478Y-51501522D02*
G75*
G03*
X172406000Y-53340000I-1838478J-1838478D01*
G01*
%TO.C,Q1004*%
X176856000Y-62760000D02*
X176856000Y-59160000D01*
X172406000Y-60960000D02*
G75*
G03*
X176844478Y-62798478I2600000J0D01*
G01*
X176844478Y-59121522D02*
G75*
G03*
X172406000Y-60960000I-1838478J-1838478D01*
G01*
%TO.C,Q1003*%
X176844478Y-66741522D02*
G75*
G03*
X172406000Y-68580000I-1838478J-1838478D01*
G01*
X172406000Y-68580000D02*
G75*
G03*
X176844478Y-70418478I2600000J0D01*
G01*
X176856000Y-70380000D02*
X176856000Y-66780000D01*
%TO.C,Q1002*%
X176856000Y-78000000D02*
X176856000Y-74400000D01*
X172406000Y-76200000D02*
G75*
G03*
X176844478Y-78038478I2600000J0D01*
G01*
X176844478Y-74361522D02*
G75*
G03*
X172406000Y-76200000I-1838478J-1838478D01*
G01*
%TO.C,Q1001*%
X184680000Y-81716000D02*
X181080000Y-81716000D01*
X182880000Y-86166000D02*
G75*
G03*
X184718478Y-81727522I0J2600000D01*
G01*
X181041522Y-81727522D02*
G75*
G03*
X182880000Y-86166000I1838478J-1838478D01*
G01*
%TO.C,R1003*%
X169672000Y-61900000D02*
X169672000Y-62850000D01*
X170592000Y-62850000D02*
X168752000Y-62850000D01*
X168752000Y-62850000D02*
X168752000Y-66690000D01*
X170592000Y-66690000D02*
X170592000Y-62850000D01*
X168752000Y-66690000D02*
X170592000Y-66690000D01*
X169672000Y-67640000D02*
X169672000Y-66690000D01*
%TO.C,D1004*%
X160072000Y-49330000D02*
X166572000Y-49330000D01*
X160072000Y-54810000D02*
X160072000Y-49330000D01*
D12*
X160072000Y-54810000D02*
X166572000Y-54810000D01*
X166572000Y-49330000D02*
X166572000Y-54810000D01*
D11*
%TO.C,U1001*%
X178840000Y-80240000D02*
X197079999Y-80240000D01*
X178840001Y-49300000D02*
X178840000Y-80240000D01*
X184920001Y-49300000D02*
X178840001Y-49300000D01*
X184920001Y-49660000D02*
X184920001Y-49300000D01*
X191000000Y-49300000D02*
X191000000Y-49660000D01*
X191000000Y-49660000D02*
X184920001Y-49660000D01*
X197079999Y-80240000D02*
X197080000Y-49300000D01*
X197080000Y-49300000D02*
X191000000Y-49300000D01*
%TO.C,R1004*%
X169672000Y-51740000D02*
X169672000Y-52690000D01*
X170592000Y-52690000D02*
X168752000Y-52690000D01*
X168752000Y-52690000D02*
X168752000Y-56530000D01*
X170592000Y-56530000D02*
X170592000Y-52690000D01*
X168752000Y-56530000D02*
X170592000Y-56530000D01*
X169672000Y-57480000D02*
X169672000Y-56530000D01*
%TO.C,U1002*%
X193100000Y-83834000D02*
X190500000Y-83834000D01*
X193100000Y-84184000D02*
X193100000Y-83834000D01*
X193100000Y-86504000D02*
X193100000Y-86844000D01*
X193100000Y-86844000D02*
X188010000Y-86844000D01*
X188400084Y-86845736D02*
G75*
G03*
X192599999Y-86844000I2099916J101736D01*
G01*
%TO.C,R1008*%
X206502000Y-57480000D02*
X206502000Y-56530000D01*
X205582000Y-56530000D02*
X207422000Y-56530000D01*
X207422000Y-56530000D02*
X207422000Y-52690000D01*
X205582000Y-52690000D02*
X205582000Y-56530000D01*
X207422000Y-52690000D02*
X205582000Y-52690000D01*
X206502000Y-51740000D02*
X206502000Y-52690000D01*
%TO.C,R1001*%
X170612000Y-81788000D02*
X171562000Y-81788000D01*
X171562000Y-80868000D02*
X171562000Y-82708000D01*
X171562000Y-82708000D02*
X175402000Y-82708000D01*
X175402000Y-80868000D02*
X171562000Y-80868000D01*
X175402000Y-82708000D02*
X175402000Y-80868000D01*
X176352000Y-81788000D02*
X175402000Y-81788000D01*
%TO.C,D1008*%
X215848000Y-54810000D02*
X209348000Y-54810000D01*
X215848000Y-49330000D02*
X215848000Y-54810000D01*
D12*
X215848000Y-49330000D02*
X209348000Y-49330000D01*
X209348000Y-54810000D02*
X209348000Y-49330000D01*
D11*
%TO.C,R1005*%
X205562000Y-81788000D02*
X204612000Y-81788000D01*
X204612000Y-82708000D02*
X204612000Y-80868000D01*
X204612000Y-80868000D02*
X200772000Y-80868000D01*
X200772000Y-82708000D02*
X204612000Y-82708000D01*
X200772000Y-80868000D02*
X200772000Y-82708000D01*
X199822000Y-81788000D02*
X200772000Y-81788000D01*
%TO.C,D1006*%
X215848000Y-75125000D02*
X209348000Y-75125000D01*
X215848000Y-69645000D02*
X215848000Y-75125000D01*
D12*
X215848000Y-69645000D02*
X209348000Y-69645000D01*
X209348000Y-75125000D02*
X209348000Y-69645000D01*
D11*
%TO.C,R1006*%
X206502000Y-77800000D02*
X206502000Y-76850000D01*
X205582000Y-76850000D02*
X207422000Y-76850000D01*
X207422000Y-76850000D02*
X207422000Y-73010000D01*
X205582000Y-73010000D02*
X205582000Y-76850000D01*
X207422000Y-73010000D02*
X205582000Y-73010000D01*
X206502000Y-72060000D02*
X206502000Y-73010000D01*
%TO.C,D1002*%
X160072000Y-69650000D02*
X166572000Y-69650000D01*
X160072000Y-75130000D02*
X160072000Y-69650000D01*
D12*
X160072000Y-75130000D02*
X166572000Y-75130000D01*
X166572000Y-69650000D02*
X166572000Y-75130000D01*
D11*
%TO.C,R1002*%
X169672000Y-77800000D02*
X169672000Y-76850000D01*
X168752000Y-76850000D02*
X170592000Y-76850000D01*
X170592000Y-76850000D02*
X170592000Y-73010000D01*
X168752000Y-73010000D02*
X168752000Y-76850000D01*
X170592000Y-73010000D02*
X168752000Y-73010000D01*
X169672000Y-72060000D02*
X169672000Y-73010000D01*
D12*
%TO.C,D1001*%
X161852000Y-80316000D02*
X167332000Y-80316000D01*
X167332000Y-86816000D02*
X167332000Y-80316000D01*
D11*
X167332000Y-86816000D02*
X161852000Y-86816000D01*
X161852000Y-86816000D02*
X161852000Y-80316000D01*
%TO.C,R1007*%
X206502000Y-67640000D02*
X206502000Y-66690000D01*
X205582000Y-66690000D02*
X207422000Y-66690000D01*
X207422000Y-66690000D02*
X207422000Y-62850000D01*
X205582000Y-62850000D02*
X205582000Y-66690000D01*
X207422000Y-62850000D02*
X205582000Y-62850000D01*
X206502000Y-61900000D02*
X206502000Y-62850000D01*
%TO.C,D1005*%
X208588000Y-86816000D02*
X208588000Y-80316000D01*
X214068000Y-86816000D02*
X208588000Y-86816000D01*
D12*
X214068000Y-86816000D02*
X214068000Y-80316000D01*
X208588000Y-80316000D02*
X214068000Y-80316000D01*
D11*
%TO.C,D1003*%
X160072000Y-59490000D02*
X166572000Y-59490000D01*
X160072000Y-64970000D02*
X160072000Y-59490000D01*
D12*
X160072000Y-64970000D02*
X166572000Y-64970000D01*
X166572000Y-59490000D02*
X166572000Y-64970000D01*
D11*
%TO.C,D1007*%
X215848000Y-65219000D02*
X209348000Y-65219000D01*
X215848000Y-59739000D02*
X215848000Y-65219000D01*
D12*
X215848000Y-59739000D02*
X209348000Y-59739000D01*
X209348000Y-65219000D02*
X209348000Y-59739000D01*
%TD*%
M02*
