M48
; DRILL file {KiCad 7.0.9-7.0.9~ubuntu22.04.1} date Sat 06 Jan 2024 04:43:18 PM PST
; FORMAT={-:-/ absolute / inch / decimal}
; #@! TF.CreationDate,2024-01-06T16:43:18-08:00
; #@! TF.GenerationSoftware,Kicad,Pcbnew,7.0.9-7.0.9~ubuntu22.04.1
; #@! TF.FileFunction,Plated,1,2,PTH
FMAT,2
INCH
; #@! TA.AperFunction,Plated,PTH,ComponentDrill
T1C0.0276
; #@! TA.AperFunction,Plated,PTH,ComponentDrill
T2C0.0295
; #@! TA.AperFunction,Plated,PTH,ComponentDrill
T3C0.0354
; #@! TA.AperFunction,Plated,PTH,ComponentDrill
T4C0.0433
; #@! TA.AperFunction,Plated,PTH,ComponentDrill
T5C0.0472
%
G90
G05
T1
X6.68Y-2.0
X6.68Y-2.3
X6.68Y-2.4
X6.68Y-2.7
X6.68Y-2.8
X6.68Y-3.1
X6.68Y-3.22
X6.98Y-3.22
X7.83Y-3.22
X8.13Y-2.0
X8.13Y-2.3
X8.13Y-2.4
X8.13Y-2.7
X8.13Y-2.8
X8.13Y-3.1
X8.13Y-3.22
T2
X6.89Y-2.0
X6.89Y-2.1
X6.89Y-2.2
X6.89Y-2.3
X6.89Y-2.4
X6.89Y-2.5
X6.89Y-2.6
X6.89Y-2.7
X6.89Y-2.8
X6.89Y-2.9
X6.89Y-3.0
X6.89Y-3.1
X7.1Y-3.29
X7.2Y-3.29
X7.3Y-3.29
X7.91Y-1.99
X7.91Y-2.09
X7.91Y-2.19
X7.91Y-2.3
X7.91Y-2.4
X7.91Y-2.5
X7.91Y-2.6
X7.91Y-2.7
X7.91Y-2.8
X7.91Y-2.9
X7.91Y-3.0
X7.91Y-3.1
T3
X7.4Y-3.36
X7.5Y-3.36
X7.6Y-3.36
T4
X7.1Y-2.0
X7.1Y-2.1
X7.1Y-2.2
X7.1Y-2.3
X7.1Y-2.4
X7.1Y-2.5
X7.1Y-2.6
X7.1Y-2.7
X7.1Y-2.8
X7.1Y-2.9
X7.1Y-3.0
X7.1Y-3.1
X7.7Y-2.0
X7.7Y-2.1
X7.7Y-2.2
X7.7Y-2.3
X7.7Y-2.4
X7.7Y-2.5
X7.7Y-2.6
X7.7Y-2.7
X7.7Y-2.8
X7.7Y-2.9
X7.7Y-3.0
X7.7Y-3.1
T5
X6.43Y-2.0
X6.43Y-2.1
X6.43Y-2.4
X6.43Y-2.5
X6.43Y-2.8
X6.43Y-2.9
X6.43Y-3.29
X6.53Y-3.29
X8.27Y-3.29
X8.37Y-2.0
X8.37Y-2.1
X8.37Y-2.4098
X8.37Y-2.5098
X8.37Y-2.7998
X8.37Y-2.8998
X8.37Y-3.29
T0
M30
