<?xml version="1.0" standalone="no"?>
 <!DOCTYPE svg PUBLIC "-//W3C//DTD SVG 1.1//EN" 
 "http://www.w3.org/Graphics/SVG/1.1/DTD/svg11.dtd"> 
<svg
  xmlns:svg="http://www.w3.org/2000/svg"
  xmlns="http://www.w3.org/2000/svg"
  xmlns:xlink="http://www.w3.org/1999/xlink"
  version="1.1"
  width="55.9562mm" height="37.6682mm" viewBox="0.0000 0.0000 55.9562 37.6682">
<title>SVG Image created as ir-buddy-B_Mask.svg date 2026/02/26 22:15:24 </title>
  <desc>Image generated by PCBNEW </desc>
<g style="fill:#000000; fill-opacity:1.0000;stroke:#000000; stroke-opacity:1.0000;
stroke-linecap:round; stroke-linejoin:round;"
 transform="translate(0 0) scale(1 1)">
</g>
<g style="fill:#02FFEE; fill-opacity:0.4000; stroke:none;">
<circle cx="9.7020" cy="11.7340" r="0.7000" /> 
</g>
<g style="fill:#02FFEE; fill-opacity:0.4000; stroke:none;">
<circle cx="9.7020" cy="19.3540" r="0.7000" /> 
<path style="fill:#02FFEE; fill-opacity:0.4000; stroke:none;fill-rule:evenodd;"
d="M 2.5020,2.4240
2.5020,0.7240
4.2020,0.7240
4.2020,2.4240
Z" /> 
<circle cx="3.3520" cy="4.1140" r="0.8500" /> 
<path style="fill:#02FFEE; fill-opacity:0.4000; stroke:none;fill-rule:evenodd;"
d="M 15.7360,22.5940
14.3360,22.5940
14.3360,21.1940
15.7360,21.1940
Z" /> 
<circle cx="15.0360" cy="19.3540" r="0.7000" /> 
<circle cx="15.0360" cy="16.8140" r="0.7000" /> 
<path style="fill:#02FFEE; fill-opacity:0.4000; stroke:none;fill-rule:evenodd;"
d="M 40.2440,8.4940
41.6440,8.4940
41.6440,9.8940
40.2440,9.8940
Z" /> 
<circle cx="40.9440" cy="11.7340" r="0.7000" /> 
<circle cx="40.9440" cy="14.2740" r="0.7000" /> 
<path style="fill:#02FFEE; fill-opacity:0.4000; stroke:none;fill-rule:evenodd;"
d="M 21.1700,0.7740
21.1700,2.3740
19.5700,2.3740
19.5700,0.7740
Z" /> 
<circle cx="20.3700" cy="4.1140" r="0.8000" /> 
<circle cx="20.3700" cy="6.6540" r="0.8000" /> 
<circle cx="20.3700" cy="9.1940" r="0.8000" /> 
<circle cx="20.3700" cy="11.7340" r="0.8000" /> 
<circle cx="20.3700" cy="14.2740" r="0.8000" /> 
<circle cx="20.3700" cy="16.8140" r="0.8000" /> 
<circle cx="20.3700" cy="19.3540" r="0.8000" /> 
<circle cx="20.3700" cy="21.8940" r="0.8000" /> 
<circle cx="20.3700" cy="24.4340" r="0.8000" /> 
<circle cx="20.3700" cy="26.9740" r="0.8000" /> 
<circle cx="20.3700" cy="29.5140" r="0.8000" /> 
<circle cx="35.6100" cy="29.5140" r="0.8000" /> 
<circle cx="35.6100" cy="26.9740" r="0.8000" /> 
<circle cx="35.6100" cy="24.4340" r="0.8000" /> 
<circle cx="35.6100" cy="21.8940" r="0.8000" /> 
<circle cx="35.6100" cy="19.3540" r="0.8000" /> 
<circle cx="35.6100" cy="16.8140" r="0.8000" /> 
<circle cx="35.6100" cy="14.2740" r="0.8000" /> 
<circle cx="35.6100" cy="11.7340" r="0.8000" /> 
<circle cx="35.6100" cy="9.1940" r="0.8000" /> 
<circle cx="35.6100" cy="6.6540" r="0.8000" /> 
<circle cx="35.6100" cy="4.1140" r="0.8000" /> 
<circle cx="35.6100" cy="1.5740" r="0.8000" /> 
<circle cx="9.7020" cy="1.5740" r="0.7000" /> 
</g>
<g style="fill:#02FFEE; fill-opacity:0.4000; stroke:none;">
<circle cx="9.7020" cy="9.1940" r="0.7000" /> 
<path style="fill:#02FFEE; fill-opacity:0.4000; stroke:none;fill-rule:evenodd;"
d="M 15.7360,30.2140
14.3360,30.2140
14.3360,28.8140
15.7360,28.8140
Z" /> 
<circle cx="15.0360" cy="26.9740" r="0.7000" /> 
<circle cx="15.0360" cy="24.4340" r="0.7000" /> 
<path style="fill:#02FFEE; fill-opacity:0.4000; stroke:none;fill-rule:evenodd;"
d="M 27.0900,35.4682
27.1090,35.3725
27.1633,35.2913
27.2445,35.2370
27.3402,35.2180
28.6398,35.2180
28.7355,35.2370
28.8167,35.2913
28.8710,35.3725
28.8900,35.4682
28.8900,36.7678
28.8710,36.8635
28.8167,36.9447
28.7355,36.9990
28.6398,37.0180
27.3402,37.0180
27.2445,36.9990
27.1633,36.9447
27.1090,36.8635
27.0900,36.7678
Z" /> 
<circle cx="30.5300" cy="36.1180" r="0.9000" /> 
</g>
<g style="fill:#02FFEE; fill-opacity:0.4000; stroke:none;">
<circle cx="33.0700" cy="36.1180" r="0.9000" /> 
</g>
<g style="fill:#02FFEE; fill-opacity:0.4000; stroke:none;">
<circle cx="46.5320" cy="9.1940" r="0.7000" /> 
</g>
<g style="fill:#02FFEE; fill-opacity:0.4000; stroke:none;">
<circle cx="46.5320" cy="1.5740" r="0.7000" /> 
<circle cx="9.7020" cy="32.5620" r="0.7000" /> 
</g>
<g style="fill:#02FFEE; fill-opacity:0.4000; stroke:none;">
<circle cx="17.3220" cy="32.5620" r="0.7000" /> 
<path style="fill:#02FFEE; fill-opacity:0.4000; stroke:none;fill-rule:evenodd;"
d="M 15.7360,14.9740
14.3360,14.9740
14.3360,13.5740
15.7360,13.5740
Z" /> 
<circle cx="15.0360" cy="11.7340" r="0.7000" /> 
<circle cx="15.0360" cy="9.1940" r="0.7000" /> 
<path style="fill:#02FFEE; fill-opacity:0.4000; stroke:none;fill-rule:evenodd;"
d="M 53.4780,3.2640
53.4780,4.9640
51.7780,4.9640
51.7780,3.2640
Z" /> 
<circle cx="52.6280" cy="1.5740" r="0.8500" /> 
<circle cx="46.5320" cy="32.5620" r="0.7000" /> 
</g>
<g style="fill:#02FFEE; fill-opacity:0.4000; stroke:none;">
<circle cx="38.9120" cy="32.5620" r="0.7000" /> 
<path style="fill:#02FFEE; fill-opacity:0.4000; stroke:none;fill-rule:evenodd;"
d="M 53.4780,23.5790
53.4780,25.2790
51.7780,25.2790
51.7780,23.5790
Z" /> 
<circle cx="52.6280" cy="21.8890" r="0.8500" /> 
<path style="fill:#02FFEE; fill-opacity:0.4000; stroke:none;fill-rule:evenodd;"
d="M 40.2440,16.1140
41.6440,16.1140
41.6440,17.5140
40.2440,17.5140
Z" /> 
<circle cx="40.9440" cy="19.3540" r="0.7000" /> 
<circle cx="40.9440" cy="21.8940" r="0.7000" /> 
<path style="fill:#02FFEE; fill-opacity:0.4000; stroke:none;fill-rule:evenodd;"
d="M 40.2440,23.7340
41.6440,23.7340
41.6440,25.1340
40.2440,25.1340
Z" /> 
<circle cx="40.9440" cy="26.9740" r="0.7000" /> 
<circle cx="40.9440" cy="29.5140" r="0.7000" /> 
<circle cx="46.5320" cy="29.5140" r="0.7000" /> 
</g>
<g style="fill:#02FFEE; fill-opacity:0.4000; stroke:none;">
<circle cx="46.5320" cy="21.8940" r="0.7000" /> 
<path style="fill:#02FFEE; fill-opacity:0.4000; stroke:none;fill-rule:evenodd;"
d="M 2.5020,22.7440
2.5020,21.0440
4.2020,21.0440
4.2020,22.7440
Z" /> 
<circle cx="3.3520" cy="24.4340" r="0.8500" /> 
<path style="fill:#02FFEE; fill-opacity:0.4000; stroke:none;fill-rule:evenodd;"
d="M 26.1500,33.6400
26.1500,35.0400
24.7500,35.0400
24.7500,33.6400
Z" /> 
<circle cx="22.9100" cy="34.3400" r="0.7000" /> 
<circle cx="20.3700" cy="34.3400" r="0.7000" /> 
<circle cx="9.7020" cy="29.5140" r="0.7000" /> 
</g>
<g style="fill:#02FFEE; fill-opacity:0.4000; stroke:none;">
<circle cx="9.7020" cy="21.8940" r="0.7000" /> 
<path style="fill:#02FFEE; fill-opacity:0.4000; stroke:none;fill-rule:evenodd;"
d="M 4.2020,35.1900
2.5020,35.1900
2.5020,33.4900
4.2020,33.4900
Z" /> 
<circle cx="5.8920" cy="34.3400" r="0.8500" /> 
<circle cx="46.5320" cy="19.3540" r="0.7000" /> 
</g>
<g style="fill:#02FFEE; fill-opacity:0.4000; stroke:none;">
<circle cx="46.5320" cy="11.7340" r="0.7000" /> 
<path style="fill:#02FFEE; fill-opacity:0.4000; stroke:none;fill-rule:evenodd;"
d="M 50.9380,35.1900
49.2380,35.1900
49.2380,33.4900
50.9380,33.4900
Z" /> 
<circle cx="52.6280" cy="34.3400" r="0.8500" /> 
<path style="fill:#02FFEE; fill-opacity:0.4000; stroke:none;fill-rule:evenodd;"
d="M 2.5020,12.5840
2.5020,10.8840
4.2020,10.8840
4.2020,12.5840
Z" /> 
<circle cx="3.3520" cy="14.2740" r="0.8500" /> 
<path style="fill:#02FFEE; fill-opacity:0.4000; stroke:none;fill-rule:evenodd;"
d="M 40.2440,0.6200
41.6440,0.6200
41.6440,2.0200
40.2440,2.0200
Z" /> 
<circle cx="40.9440" cy="3.8600" r="0.7000" /> 
<circle cx="40.9440" cy="6.4000" r="0.7000" /> 
<path style="fill:#02FFEE; fill-opacity:0.4000; stroke:none;fill-rule:evenodd;"
d="M 53.4780,13.6730
53.4780,15.3730
51.7780,15.3730
51.7780,13.6730
Z" /> 
<circle cx="52.6280" cy="11.9830" r="0.8500" /> 
<path style="fill:#02FFEE; fill-opacity:0.4000; stroke:none;fill-rule:evenodd;"
d="M 15.7360,7.3540
14.3360,7.3540
14.3360,5.9540
15.7360,5.9540
Z" /> 
<circle cx="15.0360" cy="4.1140" r="0.7000" /> 
<circle cx="15.0360" cy="1.5740" r="0.7000" /> 
</g> 
</svg>
